  0
SECTION
  2
HEADER
  9
$ACADVER
  1
AC1009
  9
$EXTMIN
 10
0.0
 20
0.0
 30
0.0
  9
$EXTMAX
 10
1000.0
 20
1000.0
 30
0.0
  9
$FILLMODE
 70
 0
  9
$SPLFRAME
 70
 1
  0
ENDSEC
  0
SECTION
  2
TABLES
  0
TABLE
  2
LAYER
 70
1
  0
LAYER
  2
0
 70
     0
 62
     7
  6
CONTINUOUS
  0
ENDTAB
  0
ENDSEC
  0
SECTION
  2
ENTITIES
  0
LINE
  8
0
 62
     0
 10
260.095
 20
96.2131
 30
0.0
 11
260.329
 21
96.2036
 31
0.0
  0
LINE
  8
0
 62
     0
 10
260.329
 20
96.2036
 30
0.0
 11
260.563
 21
96.1775
 31
0.0
  0
LINE
  8
0
 62
     0
 10
260.563
 20
96.1775
 30
0.0
 11
260.795
 21
96.1305
 31
0.0
  0
LINE
  8
0
 62
     0
 10
260.795
 20
96.1305
 30
0.0
 11
261.021
 21
96.067
 31
0.0
  0
LINE
  8
0
 62
     0
 10
261.021
 20
96.067
 30
0.0
 11
261.243
 21
95.9845
 31
0.0
  0
LINE
  8
0
 62
     0
 10
261.243
 20
95.9845
 30
0.0
 11
261.457
 21
95.8868
 31
0.0
  0
LINE
  8
0
 62
     0
 10
261.457
 20
95.8868
 30
0.0
 11
261.662
 21
95.771
 31
0.0
  0
LINE
  8
0
 62
     0
 10
261.662
 20
95.771
 30
0.0
 11
261.857
 21
95.6412
 31
0.0
  0
LINE
  8
0
 62
     0
 10
261.857
 20
95.6412
 30
0.0
 11
262.042
 21
95.4952
 31
0.0
  0
LINE
  8
0
 62
     0
 10
262.042
 20
95.4952
 30
0.0
 11
262.216
 21
95.3354
 31
0.0
  0
LINE
  8
0
 62
     0
 10
262.216
 20
95.3354
 30
0.0
 11
262.376
 21
95.1618
 31
0.0
  0
LINE
  8
0
 62
     0
 10
262.376
 20
95.1618
 30
0.0
 11
262.522
 21
94.9773
 31
0.0
  0
LINE
  8
0
 62
     0
 10
262.522
 20
94.9773
 30
0.0
 11
262.653
 21
94.7815
 31
0.0
  0
LINE
  8
0
 62
     0
 10
262.653
 20
94.7815
 30
0.0
 11
262.767
 21
94.5748
 31
0.0
  0
LINE
  8
0
 62
     0
 10
262.767
 20
94.5748
 30
0.0
 11
262.866
 21
94.361
 31
0.0
  0
LINE
  8
0
 62
     0
 10
262.866
 20
94.361
 30
0.0
 11
262.947
 21
94.1405
 31
0.0
  0
LINE
  8
0
 62
     0
 10
262.947
 20
94.1405
 30
0.0
 11
263.011
 21
93.9133
 31
0.0
  0
LINE
  8
0
 62
     0
 10
263.011
 20
93.9133
 30
0.0
 11
263.058
 21
93.6833
 31
0.0
  0
LINE
  8
0
 62
     0
 10
263.058
 20
93.6833
 30
0.0
 11
263.085
 21
93.4491
 31
0.0
  0
LINE
  8
0
 62
     0
 10
263.085
 20
93.4491
 30
0.0
 11
263.095
 21
93.2134
 31
0.0
  0
LINE
  8
0
 62
     0
 10
263.095
 20
93.2134
 30
0.0
 11
263.095
 21
3.21359
 31
0.0
  0
LINE
  8
0
 62
     0
 10
263.095
 20
3.21359
 30
0.0
 11
263.085
 21
2.97932
 31
0.0
  0
LINE
  8
0
 62
     0
 10
263.085
 20
2.97932
 30
0.0
 11
263.058
 21
2.74505
 31
0.0
  0
LINE
  8
0
 62
     0
 10
263.058
 20
2.74505
 30
0.0
 11
263.011
 21
2.51354
 31
0.0
  0
LINE
  8
0
 62
     0
 10
263.011
 20
2.51354
 30
0.0
 11
262.947
 21
2.28617
 31
0.0
  0
LINE
  8
0
 62
     0
 10
262.947
 20
2.28617
 30
0.0
 11
262.866
 21
2.06568
 31
0.0
  0
LINE
  8
0
 62
     0
 10
262.866
 20
2.06568
 30
0.0
 11
262.767
 21
1.85346
 31
0.0
  0
LINE
  8
0
 62
     0
 10
262.767
 20
1.85346
 30
0.0
 11
262.653
 21
1.64676
 31
0.0
  0
LINE
  8
0
 62
     0
 10
262.653
 20
1.64676
 30
0.0
 11
262.522
 21
1.45107
 31
0.0
  0
LINE
  8
0
 62
     0
 10
262.522
 20
1.45107
 30
0.0
 11
262.376
 21
1.26642
 31
0.0
  0
LINE
  8
0
 62
     0
 10
262.376
 20
1.26642
 30
0.0
 11
262.216
 21
1.09279
 31
0.0
  0
LINE
  8
0
 62
     0
 10
262.216
 20
1.09279
 30
0.0
 11
262.042
 21
0.932931
 31
0.0
  0
LINE
  8
0
 62
     0
 10
262.042
 20
0.932931
 30
0.0
 11
261.857
 21
0.78686
 31
0.0
  0
LINE
  8
0
 62
     0
 10
261.857
 20
0.78686
 30
0.0
 11
261.662
 21
0.657324
 31
0.0
  0
LINE
  8
0
 62
     0
 10
261.662
 20
0.657324
 30
0.0
 11
261.457
 21
0.540191
 31
0.0
  0
LINE
  8
0
 62
     0
 10
261.457
 20
0.540191
 30
0.0
 11
261.243
 21
0.442352
 31
0.0
  0
LINE
  8
0
 62
     0
 10
261.243
 20
0.442352
 30
0.0
 11
261.021
 21
0.361047
 31
0.0
  0
LINE
  8
0
 62
     0
 10
261.021
 20
0.361047
 30
0.0
 11
260.795
 21
0.296278
 31
0.0
  0
LINE
  8
0
 62
     0
 10
260.795
 20
0.296278
 30
0.0
 11
260.563
 21
0.250803
 31
0.0
  0
LINE
  8
0
 62
     0
 10
260.563
 20
0.250803
 30
0.0
 11
260.329
 21
0.223242
 31
0.0
  0
LINE
  8
0
 62
     0
 10
260.329
 20
0.223242
 30
0.0
 11
260.095
 21
0.213596
 31
0.0
  0
LINE
  8
0
 62
     0
 10
260.095
 20
0.213596
 30
0.0
 11
3.09507
 21
0.213596
 31
0.0
  0
LINE
  8
0
 62
     0
 10
3.09507
 20
0.213596
 30
0.0
 11
2.85943
 21
0.223242
 31
0.0
  0
LINE
  8
0
 62
     0
 10
2.85943
 20
0.223242
 30
0.0
 11
2.62516
 21
0.250803
 31
0.0
  0
LINE
  8
0
 62
     0
 10
2.62516
 20
0.250803
 30
0.0
 11
2.39503
 21
0.296278
 31
0.0
  0
LINE
  8
0
 62
     0
 10
2.39503
 20
0.296278
 30
0.0
 11
2.16765
 21
0.361047
 31
0.0
  0
LINE
  8
0
 62
     0
 10
2.16765
 20
0.361047
 30
0.0
 11
1.94717
 21
0.442352
 31
0.0
  0
LINE
  8
0
 62
     0
 10
1.94717
 20
0.442352
 30
0.0
 11
1.73357
 21
0.540191
 31
0.0
  0
LINE
  8
0
 62
     0
 10
1.73357
 20
0.540191
 30
0.0
 11
1.52687
 21
0.657324
 31
0.0
  0
LINE
  8
0
 62
     0
 10
1.52687
 20
0.657324
 30
0.0
 11
1.33119
 21
0.78686
 31
0.0
  0
LINE
  8
0
 62
     0
 10
1.33119
 20
0.78686
 30
0.0
 11
1.14653
 21
0.932931
 31
0.0
  0
LINE
  8
0
 62
     0
 10
1.14653
 20
0.932931
 30
0.0
 11
0.972894
 21
1.09279
 31
0.0
  0
LINE
  8
0
 62
     0
 10
0.972894
 20
1.09279
 30
0.0
 11
0.813043
 21
1.26642
 31
0.0
  0
LINE
  8
0
 62
     0
 10
0.813043
 20
1.26642
 30
0.0
 11
0.666972
 21
1.45107
 31
0.0
  0
LINE
  8
0
 62
     0
 10
0.666972
 20
1.45107
 30
0.0
 11
0.537436
 21
1.64676
 31
0.0
  0
LINE
  8
0
 62
     0
 10
0.537436
 20
1.64676
 30
0.0
 11
0.421679
 21
1.85346
 31
0.0
  0
LINE
  8
0
 62
     0
 10
0.421679
 20
1.85346
 30
0.0
 11
0.323839
 21
2.06568
 31
0.0
  0
LINE
  8
0
 62
     0
 10
0.323839
 20
2.06568
 30
0.0
 11
0.241157
 21
2.28617
 31
0.0
  0
LINE
  8
0
 62
     0
 10
0.241157
 20
2.28617
 30
0.0
 11
0.177767
 21
2.51354
 31
0.0
  0
LINE
  8
0
 62
     0
 10
0.177767
 20
2.51354
 30
0.0
 11
0.130914
 21
2.74505
 31
0.0
  0
LINE
  8
0
 62
     0
 10
0.130914
 20
2.74505
 30
0.0
 11
0.104731
 21
2.97932
 31
0.0
  0
LINE
  8
0
 62
     0
 10
0.104731
 20
2.97932
 30
0.0
 11
0.0950846
 21
3.21359
 31
0.0
  0
LINE
  8
0
 62
     0
 10
0.0950846
 20
3.21359
 30
0.0
 11
0.0950846
 21
93.2134
 31
0.0
  0
LINE
  8
0
 62
     0
 10
0.0950846
 20
93.2134
 30
0.0
 11
0.104731
 21
93.4491
 31
0.0
  0
LINE
  8
0
 62
     0
 10
0.104731
 20
93.4491
 30
0.0
 11
0.130914
 21
93.6833
 31
0.0
  0
LINE
  8
0
 62
     0
 10
0.130914
 20
93.6833
 30
0.0
 11
0.177767
 21
93.9133
 31
0.0
  0
LINE
  8
0
 62
     0
 10
0.177767
 20
93.9133
 30
0.0
 11
0.241157
 21
94.1405
 31
0.0
  0
LINE
  8
0
 62
     0
 10
0.241157
 20
94.1405
 30
0.0
 11
0.323839
 21
94.361
 31
0.0
  0
LINE
  8
0
 62
     0
 10
0.323839
 20
94.361
 30
0.0
 11
0.421679
 21
94.5748
 31
0.0
  0
LINE
  8
0
 62
     0
 10
0.421679
 20
94.5748
 30
0.0
 11
0.537436
 21
94.7815
 31
0.0
  0
LINE
  8
0
 62
     0
 10
0.537436
 20
94.7815
 30
0.0
 11
0.666972
 21
94.9773
 31
0.0
  0
LINE
  8
0
 62
     0
 10
0.666972
 20
94.9773
 30
0.0
 11
0.813043
 21
95.1618
 31
0.0
  0
LINE
  8
0
 62
     0
 10
0.813043
 20
95.1618
 30
0.0
 11
0.972894
 21
95.3354
 31
0.0
  0
LINE
  8
0
 62
     0
 10
0.972894
 20
95.3354
 30
0.0
 11
1.14653
 21
95.4952
 31
0.0
  0
LINE
  8
0
 62
     0
 10
1.14653
 20
95.4952
 30
0.0
 11
1.33119
 21
95.6412
 31
0.0
  0
LINE
  8
0
 62
     0
 10
1.33119
 20
95.6412
 30
0.0
 11
1.52687
 21
95.771
 31
0.0
  0
LINE
  8
0
 62
     0
 10
1.52687
 20
95.771
 30
0.0
 11
1.73357
 21
95.8868
 31
0.0
  0
LINE
  8
0
 62
     0
 10
1.73357
 20
95.8868
 30
0.0
 11
1.94717
 21
95.9845
 31
0.0
  0
LINE
  8
0
 62
     0
 10
1.94717
 20
95.9845
 30
0.0
 11
2.16765
 21
96.067
 31
0.0
  0
LINE
  8
0
 62
     0
 10
2.16765
 20
96.067
 30
0.0
 11
2.39503
 21
96.1305
 31
0.0
  0
LINE
  8
0
 62
     0
 10
2.39503
 20
96.1305
 30
0.0
 11
2.62516
 21
96.1775
 31
0.0
  0
LINE
  8
0
 62
     0
 10
2.62516
 20
96.1775
 30
0.0
 11
2.85943
 21
96.2036
 31
0.0
  0
LINE
  8
0
 62
     0
 10
2.85943
 20
96.2036
 30
0.0
 11
3.09507
 21
96.2131
 31
0.0
  0
LINE
  8
0
 62
     0
 10
3.09507
 20
96.2131
 30
0.0
 11
260.095
 21
96.2131
 31
0.0
  0
LINE
  8
0
 62
     0
 10
4.56406
 20
6.7951
 30
0.0
 11
4.09691
 21
6.55669
 31
0.0
  0
LINE
  8
0
 62
     0
 10
4.09691
 20
6.55669
 30
0.0
 11
3.72622
 21
6.18603
 31
0.0
  0
LINE
  8
0
 62
     0
 10
3.72622
 20
6.18603
 30
0.0
 11
3.48782
 21
5.71885
 31
0.0
  0
LINE
  8
0
 62
     0
 10
3.48782
 20
5.71885
 30
0.0
 11
3.40651
 21
5.2021
 31
0.0
  0
LINE
  8
0
 62
     0
 10
3.40651
 20
5.2021
 30
0.0
 11
3.48782
 21
4.68394
 31
0.0
  0
LINE
  8
0
 62
     0
 10
3.48782
 20
4.68394
 30
0.0
 11
3.72622
 21
4.21679
 31
0.0
  0
LINE
  8
0
 62
     0
 10
3.72622
 20
4.21679
 30
0.0
 11
4.09691
 21
3.84609
 31
0.0
  0
LINE
  8
0
 62
     0
 10
4.09691
 20
3.84609
 30
0.0
 11
4.56406
 21
3.60772
 31
0.0
  0
LINE
  8
0
 62
     0
 10
4.56406
 20
3.60772
 30
0.0
 11
5.08081
 21
3.5264
 31
0.0
  0
LINE
  8
0
 62
     0
 10
5.08081
 20
3.5264
 30
0.0
 11
5.59897
 21
3.60772
 31
0.0
  0
LINE
  8
0
 62
     0
 10
5.59897
 20
3.60772
 30
0.0
 11
6.06612
 21
3.84609
 31
0.0
  0
LINE
  8
0
 62
     0
 10
6.06612
 20
3.84609
 30
0.0
 11
6.43682
 21
4.21679
 31
0.0
  0
LINE
  8
0
 62
     0
 10
6.43682
 20
4.21679
 30
0.0
 11
6.67523
 21
4.68394
 31
0.0
  0
LINE
  8
0
 62
     0
 10
6.67523
 20
4.68394
 30
0.0
 11
6.75651
 21
5.2021
 31
0.0
  0
LINE
  8
0
 62
     0
 10
6.75651
 20
5.2021
 30
0.0
 11
6.67523
 21
5.71885
 31
0.0
  0
LINE
  8
0
 62
     0
 10
6.67523
 20
5.71885
 30
0.0
 11
6.43682
 21
6.18603
 31
0.0
  0
LINE
  8
0
 62
     0
 10
6.43682
 20
6.18603
 30
0.0
 11
6.06612
 21
6.55669
 31
0.0
  0
LINE
  8
0
 62
     0
 10
6.06612
 20
6.55669
 30
0.0
 11
5.59897
 21
6.7951
 31
0.0
  0
LINE
  8
0
 62
     0
 10
5.59897
 20
6.7951
 30
0.0
 11
5.08081
 21
6.87642
 31
0.0
  0
LINE
  8
0
 62
     0
 10
5.08081
 20
6.87642
 30
0.0
 11
4.56406
 21
6.7951
 31
0.0
  0
LINE
  8
0
 62
     0
 10
88.9071
 20
6.7951
 30
0.0
 11
88.4396
 21
6.55669
 31
0.0
  0
LINE
  8
0
 62
     0
 10
88.4396
 20
6.55669
 30
0.0
 11
88.0692
 21
6.18603
 31
0.0
  0
LINE
  8
0
 62
     0
 10
88.0692
 20
6.18603
 30
0.0
 11
87.8307
 21
5.71885
 31
0.0
  0
LINE
  8
0
 62
     0
 10
87.8307
 20
5.71885
 30
0.0
 11
87.7478
 21
5.2021
 31
0.0
  0
LINE
  8
0
 62
     0
 10
87.7478
 20
5.2021
 30
0.0
 11
87.8307
 21
4.68394
 31
0.0
  0
LINE
  8
0
 62
     0
 10
87.8307
 20
4.68394
 30
0.0
 11
88.0692
 21
4.21679
 31
0.0
  0
LINE
  8
0
 62
     0
 10
88.0692
 20
4.21679
 30
0.0
 11
88.4396
 21
3.84609
 31
0.0
  0
LINE
  8
0
 62
     0
 10
88.4396
 20
3.84609
 30
0.0
 11
88.9071
 21
3.60772
 31
0.0
  0
LINE
  8
0
 62
     0
 10
88.9071
 20
3.60772
 30
0.0
 11
89.4235
 21
3.5264
 31
0.0
  0
LINE
  8
0
 62
     0
 10
89.4235
 20
3.5264
 30
0.0
 11
89.9418
 21
3.60772
 31
0.0
  0
LINE
  8
0
 62
     0
 10
89.9418
 20
3.60772
 30
0.0
 11
90.4088
 21
3.84609
 31
0.0
  0
LINE
  8
0
 62
     0
 10
90.4088
 20
3.84609
 30
0.0
 11
90.7782
 21
4.21679
 31
0.0
  0
LINE
  8
0
 62
     0
 10
90.7782
 20
4.21679
 30
0.0
 11
91.0167
 21
4.68394
 31
0.0
  0
LINE
  8
0
 62
     0
 10
91.0167
 20
4.68394
 30
0.0
 11
91.0978
 21
5.2021
 31
0.0
  0
LINE
  8
0
 62
     0
 10
91.0978
 20
5.2021
 30
0.0
 11
91.0167
 21
5.71885
 31
0.0
  0
LINE
  8
0
 62
     0
 10
91.0167
 20
5.71885
 30
0.0
 11
90.7782
 21
6.18603
 31
0.0
  0
LINE
  8
0
 62
     0
 10
90.7782
 20
6.18603
 30
0.0
 11
90.4088
 21
6.55669
 31
0.0
  0
LINE
  8
0
 62
     0
 10
90.4088
 20
6.55669
 30
0.0
 11
89.9418
 21
6.7951
 31
0.0
  0
LINE
  8
0
 62
     0
 10
89.9418
 20
6.7951
 30
0.0
 11
89.4235
 21
6.87642
 31
0.0
  0
LINE
  8
0
 62
     0
 10
89.4235
 20
6.87642
 30
0.0
 11
88.9071
 21
6.7951
 31
0.0
  0
LINE
  8
0
 62
     0
 10
173.248
 20
6.7951
 30
0.0
 11
172.781
 21
6.55669
 31
0.0
  0
LINE
  8
0
 62
     0
 10
172.781
 20
6.55669
 30
0.0
 11
172.411
 21
6.18603
 31
0.0
  0
LINE
  8
0
 62
     0
 10
172.411
 20
6.18603
 30
0.0
 11
172.172
 21
5.71885
 31
0.0
  0
LINE
  8
0
 62
     0
 10
172.172
 20
5.71885
 30
0.0
 11
172.091
 21
5.2021
 31
0.0
  0
LINE
  8
0
 62
     0
 10
172.091
 20
5.2021
 30
0.0
 11
172.172
 21
4.68394
 31
0.0
  0
LINE
  8
0
 62
     0
 10
172.172
 20
4.68394
 30
0.0
 11
172.411
 21
4.21679
 31
0.0
  0
LINE
  8
0
 62
     0
 10
172.411
 20
4.21679
 30
0.0
 11
172.781
 21
3.84609
 31
0.0
  0
LINE
  8
0
 62
     0
 10
172.781
 20
3.84609
 30
0.0
 11
173.248
 21
3.60772
 31
0.0
  0
LINE
  8
0
 62
     0
 10
173.248
 20
3.60772
 30
0.0
 11
173.765
 21
3.5264
 31
0.0
  0
LINE
  8
0
 62
     0
 10
173.765
 20
3.5264
 30
0.0
 11
174.283
 21
3.60772
 31
0.0
  0
LINE
  8
0
 62
     0
 10
174.283
 20
3.60772
 30
0.0
 11
174.75
 21
3.84609
 31
0.0
  0
LINE
  8
0
 62
     0
 10
174.75
 20
3.84609
 30
0.0
 11
175.121
 21
4.21679
 31
0.0
  0
LINE
  8
0
 62
     0
 10
175.121
 20
4.21679
 30
0.0
 11
175.358
 21
4.68394
 31
0.0
  0
LINE
  8
0
 62
     0
 10
175.358
 20
4.68394
 30
0.0
 11
175.441
 21
5.2021
 31
0.0
  0
LINE
  8
0
 62
     0
 10
175.441
 20
5.2021
 30
0.0
 11
175.358
 21
5.71885
 31
0.0
  0
LINE
  8
0
 62
     0
 10
175.358
 20
5.71885
 30
0.0
 11
175.121
 21
6.18603
 31
0.0
  0
LINE
  8
0
 62
     0
 10
175.121
 20
6.18603
 30
0.0
 11
174.75
 21
6.55669
 31
0.0
  0
LINE
  8
0
 62
     0
 10
174.75
 20
6.55669
 30
0.0
 11
174.283
 21
6.7951
 31
0.0
  0
LINE
  8
0
 62
     0
 10
174.283
 20
6.7951
 30
0.0
 11
173.765
 21
6.87642
 31
0.0
  0
LINE
  8
0
 62
     0
 10
173.765
 20
6.87642
 30
0.0
 11
173.248
 21
6.7951
 31
0.0
  0
LINE
  8
0
 62
     0
 10
257.59
 20
6.7951
 30
0.0
 11
257.123
 21
6.55669
 31
0.0
  0
LINE
  8
0
 62
     0
 10
257.123
 20
6.55669
 30
0.0
 11
256.752
 21
6.18603
 31
0.0
  0
LINE
  8
0
 62
     0
 10
256.752
 20
6.18603
 30
0.0
 11
256.514
 21
5.71885
 31
0.0
  0
LINE
  8
0
 62
     0
 10
256.514
 20
5.71885
 30
0.0
 11
256.432
 21
5.2021
 31
0.0
  0
LINE
  8
0
 62
     0
 10
256.432
 20
5.2021
 30
0.0
 11
256.514
 21
4.68394
 31
0.0
  0
LINE
  8
0
 62
     0
 10
256.514
 20
4.68394
 30
0.0
 11
256.752
 21
4.21679
 31
0.0
  0
LINE
  8
0
 62
     0
 10
256.752
 20
4.21679
 30
0.0
 11
257.123
 21
3.84609
 31
0.0
  0
LINE
  8
0
 62
     0
 10
257.123
 20
3.84609
 30
0.0
 11
257.59
 21
3.60772
 31
0.0
  0
LINE
  8
0
 62
     0
 10
257.59
 20
3.60772
 30
0.0
 11
258.108
 21
3.5264
 31
0.0
  0
LINE
  8
0
 62
     0
 10
258.108
 20
3.5264
 30
0.0
 11
258.626
 21
3.60772
 31
0.0
  0
LINE
  8
0
 62
     0
 10
258.626
 20
3.60772
 30
0.0
 11
259.092
 21
3.84609
 31
0.0
  0
LINE
  8
0
 62
     0
 10
259.092
 20
3.84609
 30
0.0
 11
259.462
 21
4.21679
 31
0.0
  0
LINE
  8
0
 62
     0
 10
259.462
 20
4.21679
 30
0.0
 11
259.701
 21
4.68394
 31
0.0
  0
LINE
  8
0
 62
     0
 10
259.701
 20
4.68394
 30
0.0
 11
259.782
 21
5.2021
 31
0.0
  0
LINE
  8
0
 62
     0
 10
259.782
 20
5.2021
 30
0.0
 11
259.701
 21
5.71885
 31
0.0
  0
LINE
  8
0
 62
     0
 10
259.701
 20
5.71885
 30
0.0
 11
259.462
 21
6.18603
 31
0.0
  0
LINE
  8
0
 62
     0
 10
259.462
 20
6.18603
 30
0.0
 11
259.092
 21
6.55669
 31
0.0
  0
LINE
  8
0
 62
     0
 10
259.092
 20
6.55669
 30
0.0
 11
258.626
 21
6.7951
 31
0.0
  0
LINE
  8
0
 62
     0
 10
258.626
 20
6.7951
 30
0.0
 11
258.108
 21
6.87642
 31
0.0
  0
LINE
  8
0
 62
     0
 10
258.108
 20
6.87642
 30
0.0
 11
257.59
 21
6.7951
 31
0.0
  0
LINE
  8
0
 62
     0
 10
124.67
 20
26.5644
 30
0.0
 11
124.67
 21
21.864
 31
0.0
  0
LINE
  8
0
 62
     0
 10
124.67
 20
21.864
 30
0.0
 11
84.8942
 21
21.864
 31
0.0
  0
LINE
  8
0
 62
     0
 10
84.8942
 20
21.864
 30
0.0
 11
84.8942
 21
25.0941
 31
0.0
  0
LINE
  8
0
 62
     0
 10
84.8942
 20
25.0941
 30
0.0
 11
83.1702
 21
25.0941
 31
0.0
  0
LINE
  8
0
 62
     0
 10
83.1702
 20
25.0941
 30
0.0
 11
83.1702
 21
26.0132
 31
0.0
  0
LINE
  8
0
 62
     0
 10
83.1702
 20
26.0132
 30
0.0
 11
80.0199
 21
26.0132
 31
0.0
  0
LINE
  8
0
 62
     0
 10
80.0199
 20
26.0132
 30
0.0
 11
80.0199
 21
25.0941
 31
0.0
  0
LINE
  8
0
 62
     0
 10
80.0199
 20
25.0941
 30
0.0
 11
78.2948
 21
25.0941
 31
0.0
  0
LINE
  8
0
 62
     0
 10
78.2948
 20
25.0941
 30
0.0
 11
78.2948
 21
21.864
 31
0.0
  0
LINE
  8
0
 62
     0
 10
78.2948
 20
21.864
 30
0.0
 11
77.4693
 21
21.864
 31
0.0
  0
LINE
  8
0
 62
     0
 10
77.4693
 20
21.864
 30
0.0
 11
77.4693
 21
19.214
 31
0.0
  0
LINE
  8
0
 62
     0
 10
77.4693
 20
19.214
 30
0.0
 11
78.2948
 21
19.214
 31
0.0
  0
LINE
  8
0
 62
     0
 10
78.2948
 20
19.214
 30
0.0
 11
78.2948
 21
12.9439
 31
0.0
  0
LINE
  8
0
 62
     0
 10
78.2948
 20
12.9439
 30
0.0
 11
80.0199
 21
12.9439
 31
0.0
  0
LINE
  8
0
 62
     0
 10
80.0199
 20
12.9439
 30
0.0
 11
80.0199
 21
11.9641
 31
0.0
  0
LINE
  8
0
 62
     0
 10
80.0199
 20
11.9641
 30
0.0
 11
83.1702
 21
11.9641
 31
0.0
  0
LINE
  8
0
 62
     0
 10
83.1702
 20
11.9641
 30
0.0
 11
83.1702
 21
12.9439
 31
0.0
  0
LINE
  8
0
 62
     0
 10
83.1702
 20
12.9439
 30
0.0
 11
84.8942
 21
12.9439
 31
0.0
  0
LINE
  8
0
 62
     0
 10
84.8942
 20
12.9439
 30
0.0
 11
84.8942
 21
17.4143
 31
0.0
  0
LINE
  8
0
 62
     0
 10
84.8942
 20
17.4143
 30
0.0
 11
124.67
 21
17.4143
 31
0.0
  0
LINE
  8
0
 62
     0
 10
124.67
 20
17.4143
 30
0.0
 11
124.67
 21
12.7138
 31
0.0
  0
LINE
  8
0
 62
     0
 10
124.67
 20
12.7138
 30
0.0
 11
138.519
 21
12.7138
 31
0.0
  0
LINE
  8
0
 62
     0
 10
138.519
 20
12.7138
 30
0.0
 11
138.519
 21
17.4143
 31
0.0
  0
LINE
  8
0
 62
     0
 10
138.519
 20
17.4143
 30
0.0
 11
178.295
 21
17.4143
 31
0.0
  0
LINE
  8
0
 62
     0
 10
178.295
 20
17.4143
 30
0.0
 11
178.295
 21
12.9439
 31
0.0
  0
LINE
  8
0
 62
     0
 10
178.295
 20
12.9439
 30
0.0
 11
180.02
 21
12.9439
 31
0.0
  0
LINE
  8
0
 62
     0
 10
180.02
 20
12.9439
 30
0.0
 11
180.02
 21
11.9641
 31
0.0
  0
LINE
  8
0
 62
     0
 10
180.02
 20
11.9641
 30
0.0
 11
183.169
 21
11.9641
 31
0.0
  0
LINE
  8
0
 62
     0
 10
183.169
 20
11.9641
 30
0.0
 11
183.169
 21
12.9439
 31
0.0
  0
LINE
  8
0
 62
     0
 10
183.169
 20
12.9439
 30
0.0
 11
184.894
 21
12.9439
 31
0.0
  0
LINE
  8
0
 62
     0
 10
184.894
 20
12.9439
 30
0.0
 11
184.894
 21
19.214
 31
0.0
  0
LINE
  8
0
 62
     0
 10
184.894
 20
19.214
 30
0.0
 11
185.72
 21
19.214
 31
0.0
  0
LINE
  8
0
 62
     0
 10
185.72
 20
19.214
 30
0.0
 11
185.72
 21
21.864
 31
0.0
  0
LINE
  8
0
 62
     0
 10
185.72
 20
21.864
 30
0.0
 11
184.894
 21
21.864
 31
0.0
  0
LINE
  8
0
 62
     0
 10
184.894
 20
21.864
 30
0.0
 11
184.894
 21
25.0941
 31
0.0
  0
LINE
  8
0
 62
     0
 10
184.894
 20
25.0941
 30
0.0
 11
183.169
 21
25.0941
 31
0.0
  0
LINE
  8
0
 62
     0
 10
183.169
 20
25.0941
 30
0.0
 11
183.169
 21
26.0132
 31
0.0
  0
LINE
  8
0
 62
     0
 10
183.169
 20
26.0132
 30
0.0
 11
180.02
 21
26.0132
 31
0.0
  0
LINE
  8
0
 62
     0
 10
180.02
 20
26.0132
 30
0.0
 11
180.02
 21
25.0941
 31
0.0
  0
LINE
  8
0
 62
     0
 10
180.02
 20
25.0941
 30
0.0
 11
178.295
 21
25.0941
 31
0.0
  0
LINE
  8
0
 62
     0
 10
178.295
 20
25.0941
 30
0.0
 11
178.295
 21
21.864
 31
0.0
  0
LINE
  8
0
 62
     0
 10
178.295
 20
21.864
 30
0.0
 11
138.519
 21
21.864
 31
0.0
  0
LINE
  8
0
 62
     0
 10
138.519
 20
21.864
 30
0.0
 11
138.519
 21
26.5644
 31
0.0
  0
LINE
  8
0
 62
     0
 10
138.519
 20
26.5644
 30
0.0
 11
124.67
 21
26.5644
 31
0.0
  0
LINE
  8
0
 62
     0
 10
219.92
 20
26.5644
 30
0.0
 11
233.769
 21
26.5644
 31
0.0
  0
LINE
  8
0
 62
     0
 10
233.769
 20
26.5644
 30
0.0
 11
233.769
 21
12.7138
 31
0.0
  0
LINE
  8
0
 62
     0
 10
233.769
 20
12.7138
 30
0.0
 11
219.92
 21
12.7138
 31
0.0
  0
LINE
  8
0
 62
     0
 10
219.92
 20
12.7138
 30
0.0
 11
219.92
 21
26.5644
 31
0.0
  0
LINE
  8
0
 62
     0
 10
196.106
 20
26.5644
 30
0.0
 11
209.956
 21
26.5644
 31
0.0
  0
LINE
  8
0
 62
     0
 10
209.956
 20
26.5644
 30
0.0
 11
209.956
 21
12.7138
 31
0.0
  0
LINE
  8
0
 62
     0
 10
209.956
 20
12.7138
 30
0.0
 11
196.106
 21
12.7138
 31
0.0
  0
LINE
  8
0
 62
     0
 10
196.106
 20
12.7138
 30
0.0
 11
196.106
 21
26.5644
 31
0.0
  0
LINE
  8
0
 62
     0
 10
53.231
 20
26.5644
 30
0.0
 11
67.0814
 21
26.5644
 31
0.0
  0
LINE
  8
0
 62
     0
 10
67.0814
 20
26.5644
 30
0.0
 11
67.0814
 21
12.7138
 31
0.0
  0
LINE
  8
0
 62
     0
 10
67.0814
 20
12.7138
 30
0.0
 11
53.231
 21
12.7138
 31
0.0
  0
LINE
  8
0
 62
     0
 10
53.231
 20
12.7138
 30
0.0
 11
53.231
 21
26.5644
 31
0.0
  0
LINE
  8
0
 62
     0
 10
29.4197
 20
26.5644
 30
0.0
 11
43.2689
 21
26.5644
 31
0.0
  0
LINE
  8
0
 62
     0
 10
43.2689
 20
26.5644
 30
0.0
 11
43.2689
 21
12.7138
 31
0.0
  0
LINE
  8
0
 62
     0
 10
43.2689
 20
12.7138
 30
0.0
 11
29.4197
 21
12.7138
 31
0.0
  0
LINE
  8
0
 62
     0
 10
29.4197
 20
12.7138
 30
0.0
 11
29.4197
 21
26.5644
 31
0.0
  0
LINE
  8
0
 62
     0
 10
212.776
 20
45.6145
 30
0.0
 11
226.625
 21
45.6145
 31
0.0
  0
LINE
  8
0
 62
     0
 10
226.625
 20
45.6145
 30
0.0
 11
226.625
 21
31.7638
 31
0.0
  0
LINE
  8
0
 62
     0
 10
226.625
 20
31.7638
 30
0.0
 11
212.776
 21
31.7638
 31
0.0
  0
LINE
  8
0
 62
     0
 10
212.776
 20
31.7638
 30
0.0
 11
212.776
 21
45.6145
 31
0.0
  0
LINE
  8
0
 62
     0
 10
193.726
 20
45.6145
 30
0.0
 11
207.575
 21
45.6145
 31
0.0
  0
LINE
  8
0
 62
     0
 10
207.575
 20
45.6145
 30
0.0
 11
207.575
 21
31.7638
 31
0.0
  0
LINE
  8
0
 62
     0
 10
207.575
 20
31.7638
 30
0.0
 11
193.726
 21
31.7638
 31
0.0
  0
LINE
  8
0
 62
     0
 10
193.726
 20
31.7638
 30
0.0
 11
193.726
 21
45.6145
 31
0.0
  0
LINE
  8
0
 62
     0
 10
174.676
 20
45.6145
 30
0.0
 11
188.525
 21
45.6145
 31
0.0
  0
LINE
  8
0
 62
     0
 10
188.525
 20
45.6145
 30
0.0
 11
188.525
 21
31.7638
 31
0.0
  0
LINE
  8
0
 62
     0
 10
188.525
 20
31.7638
 30
0.0
 11
174.676
 21
31.7638
 31
0.0
  0
LINE
  8
0
 62
     0
 10
174.676
 20
31.7638
 30
0.0
 11
174.676
 21
45.6145
 31
0.0
  0
LINE
  8
0
 62
     0
 10
155.626
 20
45.6145
 30
0.0
 11
169.475
 21
45.6145
 31
0.0
  0
LINE
  8
0
 62
     0
 10
169.475
 20
45.6145
 30
0.0
 11
169.475
 21
31.7638
 31
0.0
  0
LINE
  8
0
 62
     0
 10
169.475
 20
31.7638
 30
0.0
 11
155.626
 21
31.7638
 31
0.0
  0
LINE
  8
0
 62
     0
 10
155.626
 20
31.7638
 30
0.0
 11
155.626
 21
45.6145
 31
0.0
  0
LINE
  8
0
 62
     0
 10
136.576
 20
45.6145
 30
0.0
 11
150.425
 21
45.6145
 31
0.0
  0
LINE
  8
0
 62
     0
 10
150.425
 20
45.6145
 30
0.0
 11
150.425
 21
31.7638
 31
0.0
  0
LINE
  8
0
 62
     0
 10
150.425
 20
31.7638
 30
0.0
 11
136.576
 21
31.7638
 31
0.0
  0
LINE
  8
0
 62
     0
 10
136.576
 20
31.7638
 30
0.0
 11
136.576
 21
45.6145
 31
0.0
  0
LINE
  8
0
 62
     0
 10
117.526
 20
45.6145
 30
0.0
 11
131.375
 21
45.6145
 31
0.0
  0
LINE
  8
0
 62
     0
 10
131.375
 20
45.6145
 30
0.0
 11
131.375
 21
31.7638
 31
0.0
  0
LINE
  8
0
 62
     0
 10
131.375
 20
31.7638
 30
0.0
 11
117.526
 21
31.7638
 31
0.0
  0
LINE
  8
0
 62
     0
 10
117.526
 20
31.7638
 30
0.0
 11
117.526
 21
45.6145
 31
0.0
  0
LINE
  8
0
 62
     0
 10
98.4761
 20
45.6145
 30
0.0
 11
112.325
 21
45.6145
 31
0.0
  0
LINE
  8
0
 62
     0
 10
112.325
 20
45.6145
 30
0.0
 11
112.325
 21
31.7638
 31
0.0
  0
LINE
  8
0
 62
     0
 10
112.325
 20
31.7638
 30
0.0
 11
98.4761
 21
31.7638
 31
0.0
  0
LINE
  8
0
 62
     0
 10
98.4761
 20
31.7638
 30
0.0
 11
98.4761
 21
45.6145
 31
0.0
  0
LINE
  8
0
 62
     0
 10
79.4262
 20
45.6145
 30
0.0
 11
93.2752
 21
45.6145
 31
0.0
  0
LINE
  8
0
 62
     0
 10
93.2752
 20
45.6145
 30
0.0
 11
93.2752
 21
31.7638
 31
0.0
  0
LINE
  8
0
 62
     0
 10
93.2752
 20
31.7638
 30
0.0
 11
79.4262
 21
31.7638
 31
0.0
  0
LINE
  8
0
 62
     0
 10
79.4262
 20
31.7638
 30
0.0
 11
79.4262
 21
45.6145
 31
0.0
  0
LINE
  8
0
 62
     0
 10
60.3762
 20
45.6145
 30
0.0
 11
74.2251
 21
45.6145
 31
0.0
  0
LINE
  8
0
 62
     0
 10
74.2251
 20
45.6145
 30
0.0
 11
74.2251
 21
31.7638
 31
0.0
  0
LINE
  8
0
 62
     0
 10
74.2251
 20
31.7638
 30
0.0
 11
60.3762
 21
31.7638
 31
0.0
  0
LINE
  8
0
 62
     0
 10
60.3762
 20
31.7638
 30
0.0
 11
60.3762
 21
45.6145
 31
0.0
  0
LINE
  8
0
 62
     0
 10
41.3262
 20
45.6145
 30
0.0
 11
55.1751
 21
45.6145
 31
0.0
  0
LINE
  8
0
 62
     0
 10
55.1751
 20
45.6145
 30
0.0
 11
55.1751
 21
31.7638
 31
0.0
  0
LINE
  8
0
 62
     0
 10
55.1751
 20
31.7638
 30
0.0
 11
41.3262
 21
31.7638
 31
0.0
  0
LINE
  8
0
 62
     0
 10
41.3262
 20
31.7638
 30
0.0
 11
41.3262
 21
45.6145
 31
0.0
  0
LINE
  8
0
 62
     0
 10
240.706
 20
64.2387
 30
0.0
 11
240.706
 21
63.4132
 31
0.0
  0
LINE
  8
0
 62
     0
 10
240.706
 20
63.4132
 30
0.0
 11
234.436
 21
63.4132
 31
0.0
  0
LINE
  8
0
 62
     0
 10
234.436
 20
63.4132
 30
0.0
 11
234.436
 21
61.6892
 31
0.0
  0
LINE
  8
0
 62
     0
 10
234.436
 20
61.6892
 30
0.0
 11
233.456
 21
61.6892
 31
0.0
  0
LINE
  8
0
 62
     0
 10
233.456
 20
61.6892
 30
0.0
 11
233.456
 21
58.5392
 31
0.0
  0
LINE
  8
0
 62
     0
 10
233.456
 20
58.5392
 30
0.0
 11
234.436
 21
58.5392
 31
0.0
  0
LINE
  8
0
 62
     0
 10
234.436
 20
58.5392
 30
0.0
 11
234.436
 21
56.8138
 31
0.0
  0
LINE
  8
0
 62
     0
 10
234.436
 20
56.8138
 30
0.0
 11
238.906
 21
56.8138
 31
0.0
  0
LINE
  8
0
 62
     0
 10
238.906
 20
56.8138
 30
0.0
 11
238.906
 21
55.1395
 31
0.0
  0
LINE
  8
0
 62
     0
 10
238.906
 20
55.1395
 30
0.0
 11
234.206
 21
55.1395
 31
0.0
  0
LINE
  8
0
 62
     0
 10
234.206
 20
55.1395
 30
0.0
 11
234.206
 21
41.2888
 31
0.0
  0
LINE
  8
0
 62
     0
 10
234.206
 20
41.2888
 30
0.0
 11
238.906
 21
41.2888
 31
0.0
  0
LINE
  8
0
 62
     0
 10
238.906
 20
41.2888
 30
0.0
 11
238.906
 21
39.6145
 31
0.0
  0
LINE
  8
0
 62
     0
 10
238.906
 20
39.6145
 30
0.0
 11
234.436
 21
39.6145
 31
0.0
  0
LINE
  8
0
 62
     0
 10
234.436
 20
39.6145
 30
0.0
 11
234.436
 21
37.889
 31
0.0
  0
LINE
  8
0
 62
     0
 10
234.436
 20
37.889
 30
0.0
 11
233.456
 21
37.889
 31
0.0
  0
LINE
  8
0
 62
     0
 10
233.456
 20
37.889
 30
0.0
 11
233.456
 21
34.739
 31
0.0
  0
LINE
  8
0
 62
     0
 10
233.456
 20
34.739
 30
0.0
 11
234.436
 21
34.739
 31
0.0
  0
LINE
  8
0
 62
     0
 10
234.436
 20
34.739
 30
0.0
 11
234.436
 21
33.0137
 31
0.0
  0
LINE
  8
0
 62
     0
 10
234.436
 20
33.0137
 30
0.0
 11
240.706
 21
33.0137
 31
0.0
  0
LINE
  8
0
 62
     0
 10
240.706
 20
33.0137
 30
0.0
 11
240.706
 21
32.1882
 31
0.0
  0
LINE
  8
0
 62
     0
 10
240.706
 20
32.1882
 30
0.0
 11
243.356
 21
32.1882
 31
0.0
  0
LINE
  8
0
 62
     0
 10
243.356
 20
32.1882
 30
0.0
 11
243.356
 21
33.0137
 31
0.0
  0
LINE
  8
0
 62
     0
 10
243.356
 20
33.0137
 30
0.0
 11
246.586
 21
33.0137
 31
0.0
  0
LINE
  8
0
 62
     0
 10
246.586
 20
33.0137
 30
0.0
 11
246.586
 21
34.739
 31
0.0
  0
LINE
  8
0
 62
     0
 10
246.586
 20
34.739
 30
0.0
 11
247.507
 21
34.739
 31
0.0
  0
LINE
  8
0
 62
     0
 10
247.507
 20
34.739
 30
0.0
 11
247.507
 21
37.889
 31
0.0
  0
LINE
  8
0
 62
     0
 10
247.507
 20
37.889
 30
0.0
 11
246.586
 21
37.889
 31
0.0
  0
LINE
  8
0
 62
     0
 10
246.586
 20
37.889
 30
0.0
 11
246.586
 21
39.6145
 31
0.0
  0
LINE
  8
0
 62
     0
 10
246.586
 20
39.6145
 30
0.0
 11
243.356
 21
39.6145
 31
0.0
  0
LINE
  8
0
 62
     0
 10
243.356
 20
39.6145
 30
0.0
 11
243.356
 21
41.2888
 31
0.0
  0
LINE
  8
0
 62
     0
 10
243.356
 20
41.2888
 30
0.0
 11
248.056
 21
41.2888
 31
0.0
  0
LINE
  8
0
 62
     0
 10
248.056
 20
41.2888
 30
0.0
 11
248.056
 21
55.1395
 31
0.0
  0
LINE
  8
0
 62
     0
 10
248.056
 20
55.1395
 30
0.0
 11
243.356
 21
55.1395
 31
0.0
  0
LINE
  8
0
 62
     0
 10
243.356
 20
55.1395
 30
0.0
 11
243.356
 21
56.8138
 31
0.0
  0
LINE
  8
0
 62
     0
 10
243.356
 20
56.8138
 30
0.0
 11
246.586
 21
56.8138
 31
0.0
  0
LINE
  8
0
 62
     0
 10
246.586
 20
56.8138
 30
0.0
 11
246.586
 21
58.5392
 31
0.0
  0
LINE
  8
0
 62
     0
 10
246.586
 20
58.5392
 30
0.0
 11
247.507
 21
58.5392
 31
0.0
  0
LINE
  8
0
 62
     0
 10
247.507
 20
58.5392
 30
0.0
 11
247.507
 21
61.6892
 31
0.0
  0
LINE
  8
0
 62
     0
 10
247.507
 20
61.6892
 30
0.0
 11
246.586
 21
61.6892
 31
0.0
  0
LINE
  8
0
 62
     0
 10
246.586
 20
61.6892
 30
0.0
 11
246.586
 21
63.4132
 31
0.0
  0
LINE
  8
0
 62
     0
 10
246.586
 20
63.4132
 30
0.0
 11
243.356
 21
63.4132
 31
0.0
  0
LINE
  8
0
 62
     0
 10
243.356
 20
63.4132
 30
0.0
 11
243.356
 21
64.2387
 31
0.0
  0
LINE
  8
0
 62
     0
 10
243.356
 20
64.2387
 30
0.0
 11
240.706
 21
64.2387
 31
0.0
  0
LINE
  8
0
 62
     0
 10
19.6812
 20
64.3901
 30
0.0
 11
19.6812
 21
63.5649
 31
0.0
  0
LINE
  8
0
 62
     0
 10
19.6812
 20
63.5649
 30
0.0
 11
16.451
 21
63.5649
 31
0.0
  0
LINE
  8
0
 62
     0
 10
16.451
 20
63.5649
 30
0.0
 11
16.451
 21
61.8395
 31
0.0
  0
LINE
  8
0
 62
     0
 10
16.451
 20
61.8395
 30
0.0
 11
15.5319
 21
61.8395
 31
0.0
  0
LINE
  8
0
 62
     0
 10
15.5319
 20
61.8395
 30
0.0
 11
15.5319
 21
58.6892
 31
0.0
  0
LINE
  8
0
 62
     0
 10
15.5319
 20
58.6892
 30
0.0
 11
16.451
 21
58.6892
 31
0.0
  0
LINE
  8
0
 62
     0
 10
16.451
 20
58.6892
 30
0.0
 11
16.451
 21
56.9655
 31
0.0
  0
LINE
  8
0
 62
     0
 10
16.451
 20
56.9655
 30
0.0
 11
19.6812
 21
56.9655
 31
0.0
  0
LINE
  8
0
 62
     0
 10
19.6812
 20
56.9655
 30
0.0
 11
19.6812
 21
55.2898
 31
0.0
  0
LINE
  8
0
 62
     0
 10
19.6812
 20
55.2898
 30
0.0
 11
14.982
 21
55.2898
 31
0.0
  0
LINE
  8
0
 62
     0
 10
14.982
 20
55.2898
 30
0.0
 11
14.982
 21
41.4405
 31
0.0
  0
LINE
  8
0
 62
     0
 10
14.982
 20
41.4405
 30
0.0
 11
19.6812
 21
41.4405
 31
0.0
  0
LINE
  8
0
 62
     0
 10
19.6812
 20
41.4405
 30
0.0
 11
19.6812
 21
39.7648
 31
0.0
  0
LINE
  8
0
 62
     0
 10
19.6812
 20
39.7648
 30
0.0
 11
16.451
 21
39.7648
 31
0.0
  0
LINE
  8
0
 62
     0
 10
16.451
 20
39.7648
 30
0.0
 11
16.451
 21
38.0393
 31
0.0
  0
LINE
  8
0
 62
     0
 10
16.451
 20
38.0393
 30
0.0
 11
15.5319
 21
38.0393
 31
0.0
  0
LINE
  8
0
 62
     0
 10
15.5319
 20
38.0393
 30
0.0
 11
15.5319
 21
34.8892
 31
0.0
  0
LINE
  8
0
 62
     0
 10
15.5319
 20
34.8892
 30
0.0
 11
16.451
 21
34.8892
 31
0.0
  0
LINE
  8
0
 62
     0
 10
16.451
 20
34.8892
 30
0.0
 11
16.451
 21
33.1652
 31
0.0
  0
LINE
  8
0
 62
     0
 10
16.451
 20
33.1652
 30
0.0
 11
19.6812
 21
33.1652
 31
0.0
  0
LINE
  8
0
 62
     0
 10
19.6812
 20
33.1652
 30
0.0
 11
19.6812
 21
32.3398
 31
0.0
  0
LINE
  8
0
 62
     0
 10
19.6812
 20
32.3398
 30
0.0
 11
22.3311
 21
32.3398
 31
0.0
  0
LINE
  8
0
 62
     0
 10
22.3311
 20
32.3398
 30
0.0
 11
22.3311
 21
33.1652
 31
0.0
  0
LINE
  8
0
 62
     0
 10
22.3311
 20
33.1652
 30
0.0
 11
28.6012
 21
33.1652
 31
0.0
  0
LINE
  8
0
 62
     0
 10
28.6012
 20
33.1652
 30
0.0
 11
28.6012
 21
34.8892
 31
0.0
  0
LINE
  8
0
 62
     0
 10
28.6012
 20
34.8892
 30
0.0
 11
29.581
 21
34.8892
 31
0.0
  0
LINE
  8
0
 62
     0
 10
29.581
 20
34.8892
 30
0.0
 11
29.581
 21
38.0393
 31
0.0
  0
LINE
  8
0
 62
     0
 10
29.581
 20
38.0393
 30
0.0
 11
28.6012
 21
38.0393
 31
0.0
  0
LINE
  8
0
 62
     0
 10
28.6012
 20
38.0393
 30
0.0
 11
28.6012
 21
39.7648
 31
0.0
  0
LINE
  8
0
 62
     0
 10
28.6012
 20
39.7648
 30
0.0
 11
24.1308
 21
39.7648
 31
0.0
  0
LINE
  8
0
 62
     0
 10
24.1308
 20
39.7648
 30
0.0
 11
24.1308
 21
41.4405
 31
0.0
  0
LINE
  8
0
 62
     0
 10
24.1308
 20
41.4405
 30
0.0
 11
28.8313
 21
41.4405
 31
0.0
  0
LINE
  8
0
 62
     0
 10
28.8313
 20
41.4405
 30
0.0
 11
28.8313
 21
55.2898
 31
0.0
  0
LINE
  8
0
 62
     0
 10
28.8313
 20
55.2898
 30
0.0
 11
24.1308
 21
55.2898
 31
0.0
  0
LINE
  8
0
 62
     0
 10
24.1308
 20
55.2898
 30
0.0
 11
24.1308
 21
56.9655
 31
0.0
  0
LINE
  8
0
 62
     0
 10
24.1308
 20
56.9655
 30
0.0
 11
28.6012
 21
56.9655
 31
0.0
  0
LINE
  8
0
 62
     0
 10
28.6012
 20
56.9655
 30
0.0
 11
28.6012
 21
58.6892
 31
0.0
  0
LINE
  8
0
 62
     0
 10
28.6012
 20
58.6892
 30
0.0
 11
29.581
 21
58.6892
 31
0.0
  0
LINE
  8
0
 62
     0
 10
29.581
 20
58.6892
 30
0.0
 11
29.581
 21
61.8395
 31
0.0
  0
LINE
  8
0
 62
     0
 10
29.581
 20
61.8395
 30
0.0
 11
28.6012
 21
61.8395
 31
0.0
  0
LINE
  8
0
 62
     0
 10
28.6012
 20
61.8395
 30
0.0
 11
28.6012
 21
63.5649
 31
0.0
  0
LINE
  8
0
 62
     0
 10
28.6012
 20
63.5649
 30
0.0
 11
22.3311
 21
63.5649
 31
0.0
  0
LINE
  8
0
 62
     0
 10
22.3311
 20
63.5649
 30
0.0
 11
22.3311
 21
64.3901
 31
0.0
  0
LINE
  8
0
 62
     0
 10
22.3311
 20
64.3901
 30
0.0
 11
19.6812
 21
64.3901
 31
0.0
  0
LINE
  8
0
 62
     0
 10
208.014
 20
64.6645
 30
0.0
 11
221.864
 21
64.6645
 31
0.0
  0
LINE
  8
0
 62
     0
 10
221.864
 20
64.6645
 30
0.0
 11
221.864
 21
50.8138
 31
0.0
  0
LINE
  8
0
 62
     0
 10
221.864
 20
50.8138
 30
0.0
 11
208.014
 21
50.8138
 31
0.0
  0
LINE
  8
0
 62
     0
 10
208.014
 20
50.8138
 30
0.0
 11
208.014
 21
64.6645
 31
0.0
  0
LINE
  8
0
 62
     0
 10
188.964
 20
64.6645
 30
0.0
 11
202.814
 21
64.6645
 31
0.0
  0
LINE
  8
0
 62
     0
 10
202.814
 20
64.6645
 30
0.0
 11
202.814
 21
50.8138
 31
0.0
  0
LINE
  8
0
 62
     0
 10
202.814
 20
50.8138
 30
0.0
 11
188.964
 21
50.8138
 31
0.0
  0
LINE
  8
0
 62
     0
 10
188.964
 20
50.8138
 30
0.0
 11
188.964
 21
64.6645
 31
0.0
  0
LINE
  8
0
 62
     0
 10
169.914
 20
64.6645
 30
0.0
 11
183.764
 21
64.6645
 31
0.0
  0
LINE
  8
0
 62
     0
 10
183.764
 20
64.6645
 30
0.0
 11
183.764
 21
50.8138
 31
0.0
  0
LINE
  8
0
 62
     0
 10
183.764
 20
50.8138
 30
0.0
 11
169.914
 21
50.8138
 31
0.0
  0
LINE
  8
0
 62
     0
 10
169.914
 20
50.8138
 30
0.0
 11
169.914
 21
64.6645
 31
0.0
  0
LINE
  8
0
 62
     0
 10
150.864
 20
64.6645
 30
0.0
 11
164.714
 21
64.6645
 31
0.0
  0
LINE
  8
0
 62
     0
 10
164.714
 20
64.6645
 30
0.0
 11
164.714
 21
50.8138
 31
0.0
  0
LINE
  8
0
 62
     0
 10
164.714
 20
50.8138
 30
0.0
 11
150.864
 21
50.8138
 31
0.0
  0
LINE
  8
0
 62
     0
 10
150.864
 20
50.8138
 30
0.0
 11
150.864
 21
64.6645
 31
0.0
  0
LINE
  8
0
 62
     0
 10
131.814
 20
64.6645
 30
0.0
 11
145.664
 21
64.6645
 31
0.0
  0
LINE
  8
0
 62
     0
 10
145.664
 20
64.6645
 30
0.0
 11
145.664
 21
50.8138
 31
0.0
  0
LINE
  8
0
 62
     0
 10
145.664
 20
50.8138
 30
0.0
 11
131.814
 21
50.8138
 31
0.0
  0
LINE
  8
0
 62
     0
 10
131.814
 20
50.8138
 30
0.0
 11
131.814
 21
64.6645
 31
0.0
  0
LINE
  8
0
 62
     0
 10
112.762
 20
64.6645
 30
0.0
 11
126.614
 21
64.6645
 31
0.0
  0
LINE
  8
0
 62
     0
 10
126.614
 20
64.6645
 30
0.0
 11
126.614
 21
50.8138
 31
0.0
  0
LINE
  8
0
 62
     0
 10
126.614
 20
50.8138
 30
0.0
 11
112.762
 21
50.8138
 31
0.0
  0
LINE
  8
0
 62
     0
 10
112.762
 20
50.8138
 30
0.0
 11
112.762
 21
64.6645
 31
0.0
  0
LINE
  8
0
 62
     0
 10
93.7136
 20
64.6645
 30
0.0
 11
107.563
 21
64.6645
 31
0.0
  0
LINE
  8
0
 62
     0
 10
107.563
 20
64.6645
 30
0.0
 11
107.563
 21
50.8138
 31
0.0
  0
LINE
  8
0
 62
     0
 10
107.563
 20
50.8138
 30
0.0
 11
93.7136
 21
50.8138
 31
0.0
  0
LINE
  8
0
 62
     0
 10
93.7136
 20
50.8138
 30
0.0
 11
93.7136
 21
64.6645
 31
0.0
  0
LINE
  8
0
 62
     0
 10
74.6637
 20
64.6645
 30
0.0
 11
88.5126
 21
64.6645
 31
0.0
  0
LINE
  8
0
 62
     0
 10
88.5126
 20
64.6645
 30
0.0
 11
88.5126
 21
50.8138
 31
0.0
  0
LINE
  8
0
 62
     0
 10
88.5126
 20
50.8138
 30
0.0
 11
74.6637
 21
50.8138
 31
0.0
  0
LINE
  8
0
 62
     0
 10
74.6637
 20
50.8138
 30
0.0
 11
74.6637
 21
64.6645
 31
0.0
  0
LINE
  8
0
 62
     0
 10
55.6137
 20
64.6645
 30
0.0
 11
69.4641
 21
64.6645
 31
0.0
  0
LINE
  8
0
 62
     0
 10
69.4641
 20
64.6645
 30
0.0
 11
69.4641
 21
50.8138
 31
0.0
  0
LINE
  8
0
 62
     0
 10
69.4641
 20
50.8138
 30
0.0
 11
55.6137
 21
50.8138
 31
0.0
  0
LINE
  8
0
 62
     0
 10
55.6137
 20
50.8138
 30
0.0
 11
55.6137
 21
64.6645
 31
0.0
  0
LINE
  8
0
 62
     0
 10
36.5637
 20
64.6645
 30
0.0
 11
50.4126
 21
64.6645
 31
0.0
  0
LINE
  8
0
 62
     0
 10
50.4126
 20
64.6645
 30
0.0
 11
50.4126
 21
50.8138
 31
0.0
  0
LINE
  8
0
 62
     0
 10
50.4126
 20
50.8138
 30
0.0
 11
36.5637
 21
50.8138
 31
0.0
  0
LINE
  8
0
 62
     0
 10
36.5637
 20
50.8138
 30
0.0
 11
36.5637
 21
64.6645
 31
0.0
  0
LINE
  8
0
 62
     0
 10
229.445
 20
83.7145
 30
0.0
 11
243.294
 21
83.7145
 31
0.0
  0
LINE
  8
0
 62
     0
 10
243.294
 20
83.7145
 30
0.0
 11
243.294
 21
69.8638
 31
0.0
  0
LINE
  8
0
 62
     0
 10
243.294
 20
69.8638
 30
0.0
 11
229.445
 21
69.8638
 31
0.0
  0
LINE
  8
0
 62
     0
 10
229.445
 20
69.8638
 30
0.0
 11
229.445
 21
83.7145
 31
0.0
  0
LINE
  8
0
 62
     0
 10
203.251
 20
83.7145
 30
0.0
 11
217.1
 21
83.7145
 31
0.0
  0
LINE
  8
0
 62
     0
 10
217.1
 20
83.7145
 30
0.0
 11
217.1
 21
69.8638
 31
0.0
  0
LINE
  8
0
 62
     0
 10
217.1
 20
69.8638
 30
0.0
 11
203.251
 21
69.8638
 31
0.0
  0
LINE
  8
0
 62
     0
 10
203.251
 20
69.8638
 30
0.0
 11
203.251
 21
83.7145
 31
0.0
  0
LINE
  8
0
 62
     0
 10
184.201
 20
83.7145
 30
0.0
 11
198.05
 21
83.7145
 31
0.0
  0
LINE
  8
0
 62
     0
 10
198.05
 20
83.7145
 30
0.0
 11
198.05
 21
69.8638
 31
0.0
  0
LINE
  8
0
 62
     0
 10
198.05
 20
69.8638
 30
0.0
 11
184.201
 21
69.8638
 31
0.0
  0
LINE
  8
0
 62
     0
 10
184.201
 20
69.8638
 30
0.0
 11
184.201
 21
83.7145
 31
0.0
  0
LINE
  8
0
 62
     0
 10
165.151
 20
83.7145
 30
0.0
 11
179
 21
83.7145
 31
0.0
  0
LINE
  8
0
 62
     0
 10
179
 20
83.7145
 30
0.0
 11
179
 21
69.8638
 31
0.0
  0
LINE
  8
0
 62
     0
 10
179
 20
69.8638
 30
0.0
 11
165.151
 21
69.8638
 31
0.0
  0
LINE
  8
0
 62
     0
 10
165.151
 20
69.8638
 30
0.0
 11
165.151
 21
83.7145
 31
0.0
  0
LINE
  8
0
 62
     0
 10
146.101
 20
83.7145
 30
0.0
 11
159.95
 21
83.7145
 31
0.0
  0
LINE
  8
0
 62
     0
 10
159.95
 20
83.7145
 30
0.0
 11
159.95
 21
69.8638
 31
0.0
  0
LINE
  8
0
 62
     0
 10
159.95
 20
69.8638
 30
0.0
 11
146.101
 21
69.8638
 31
0.0
  0
LINE
  8
0
 62
     0
 10
146.101
 20
69.8638
 30
0.0
 11
146.101
 21
83.7145
 31
0.0
  0
LINE
  8
0
 62
     0
 10
127.051
 20
83.7145
 30
0.0
 11
140.9
 21
83.7145
 31
0.0
  0
LINE
  8
0
 62
     0
 10
140.9
 20
83.7145
 30
0.0
 11
140.9
 21
69.8638
 31
0.0
  0
LINE
  8
0
 62
     0
 10
140.9
 20
69.8638
 30
0.0
 11
127.051
 21
69.8638
 31
0.0
  0
LINE
  8
0
 62
     0
 10
127.051
 20
69.8638
 30
0.0
 11
127.051
 21
83.7145
 31
0.0
  0
LINE
  8
0
 62
     0
 10
108.001
 20
83.7145
 30
0.0
 11
121.85
 21
83.7145
 31
0.0
  0
LINE
  8
0
 62
     0
 10
121.85
 20
83.7145
 30
0.0
 11
121.85
 21
69.8638
 31
0.0
  0
LINE
  8
0
 62
     0
 10
121.85
 20
69.8638
 30
0.0
 11
108.001
 21
69.8638
 31
0.0
  0
LINE
  8
0
 62
     0
 10
108.001
 20
69.8638
 30
0.0
 11
108.001
 21
83.7145
 31
0.0
  0
LINE
  8
0
 62
     0
 10
88.9512
 20
83.7145
 30
0.0
 11
102.8
 21
83.7145
 31
0.0
  0
LINE
  8
0
 62
     0
 10
102.8
 20
83.7145
 30
0.0
 11
102.8
 21
69.8638
 31
0.0
  0
LINE
  8
0
 62
     0
 10
102.8
 20
69.8638
 30
0.0
 11
88.9512
 21
69.8638
 31
0.0
  0
LINE
  8
0
 62
     0
 10
88.9512
 20
69.8638
 30
0.0
 11
88.9512
 21
83.7145
 31
0.0
  0
LINE
  8
0
 62
     0
 10
69.9012
 20
83.7145
 30
0.0
 11
83.7501
 21
83.7145
 31
0.0
  0
LINE
  8
0
 62
     0
 10
83.7501
 20
83.7145
 30
0.0
 11
83.7501
 21
69.8638
 31
0.0
  0
LINE
  8
0
 62
     0
 10
83.7501
 20
69.8638
 30
0.0
 11
69.9012
 21
69.8638
 31
0.0
  0
LINE
  8
0
 62
     0
 10
69.9012
 20
69.8638
 30
0.0
 11
69.9012
 21
83.7145
 31
0.0
  0
LINE
  8
0
 62
     0
 10
50.8512
 20
83.7145
 30
0.0
 11
64.7001
 21
83.7145
 31
0.0
  0
LINE
  8
0
 62
     0
 10
64.7001
 20
83.7145
 30
0.0
 11
64.7001
 21
69.8638
 31
0.0
  0
LINE
  8
0
 62
     0
 10
64.7001
 20
69.8638
 30
0.0
 11
50.8512
 21
69.8638
 31
0.0
  0
LINE
  8
0
 62
     0
 10
50.8512
 20
69.8638
 30
0.0
 11
50.8512
 21
83.7145
 31
0.0
  0
LINE
  8
0
 62
     0
 10
31.801
 20
83.7145
 30
0.0
 11
45.6501
 21
83.7145
 31
0.0
  0
LINE
  8
0
 62
     0
 10
45.6501
 20
83.7145
 30
0.0
 11
45.6501
 21
69.8638
 31
0.0
  0
LINE
  8
0
 62
     0
 10
45.6501
 20
69.8638
 30
0.0
 11
31.801
 21
69.8638
 31
0.0
  0
LINE
  8
0
 62
     0
 10
31.801
 20
69.8638
 30
0.0
 11
31.801
 21
83.7145
 31
0.0
  0
LINE
  8
0
 62
     0
 10
12.751
 20
83.7145
 30
0.0
 11
26.6003
 21
83.7145
 31
0.0
  0
LINE
  8
0
 62
     0
 10
26.6003
 20
83.7145
 30
0.0
 11
26.6003
 21
69.8638
 31
0.0
  0
LINE
  8
0
 62
     0
 10
26.6003
 20
69.8638
 30
0.0
 11
12.751
 21
69.8638
 31
0.0
  0
LINE
  8
0
 62
     0
 10
12.751
 20
69.8638
 30
0.0
 11
12.751
 21
83.7145
 31
0.0
  0
LINE
  8
0
 62
     0
 10
4.56406
 20
92.8204
 30
0.0
 11
4.09691
 21
92.5823
 31
0.0
  0
LINE
  8
0
 62
     0
 10
4.09691
 20
92.5823
 30
0.0
 11
3.72622
 21
92.2115
 31
0.0
  0
LINE
  8
0
 62
     0
 10
3.72622
 20
92.2115
 30
0.0
 11
3.48782
 21
91.7444
 31
0.0
  0
LINE
  8
0
 62
     0
 10
3.48782
 20
91.7444
 30
0.0
 11
3.40651
 21
91.2276
 31
0.0
  0
LINE
  8
0
 62
     0
 10
3.40651
 20
91.2276
 30
0.0
 11
3.48782
 21
90.7094
 31
0.0
  0
LINE
  8
0
 62
     0
 10
3.48782
 20
90.7094
 30
0.0
 11
3.72622
 21
90.2423
 31
0.0
  0
LINE
  8
0
 62
     0
 10
3.72622
 20
90.2423
 30
0.0
 11
4.09691
 21
89.8715
 31
0.0
  0
LINE
  8
0
 62
     0
 10
4.09691
 20
89.8715
 30
0.0
 11
4.56406
 21
89.6331
 31
0.0
  0
LINE
  8
0
 62
     0
 10
4.56406
 20
89.6331
 30
0.0
 11
5.08081
 21
89.5519
 31
0.0
  0
LINE
  8
0
 62
     0
 10
5.08081
 20
89.5519
 30
0.0
 11
5.59897
 21
89.6331
 31
0.0
  0
LINE
  8
0
 62
     0
 10
5.59897
 20
89.6331
 30
0.0
 11
6.06612
 21
89.8715
 31
0.0
  0
LINE
  8
0
 62
     0
 10
6.06612
 20
89.8715
 30
0.0
 11
6.43682
 21
90.2423
 31
0.0
  0
LINE
  8
0
 62
     0
 10
6.43682
 20
90.2423
 30
0.0
 11
6.67523
 21
90.7094
 31
0.0
  0
LINE
  8
0
 62
     0
 10
6.67523
 20
90.7094
 30
0.0
 11
6.75651
 21
91.2276
 31
0.0
  0
LINE
  8
0
 62
     0
 10
6.75651
 20
91.2276
 30
0.0
 11
6.67523
 21
91.7444
 31
0.0
  0
LINE
  8
0
 62
     0
 10
6.67523
 20
91.7444
 30
0.0
 11
6.43682
 21
92.2115
 31
0.0
  0
LINE
  8
0
 62
     0
 10
6.43682
 20
92.2115
 30
0.0
 11
6.06612
 21
92.5823
 31
0.0
  0
LINE
  8
0
 62
     0
 10
6.06612
 20
92.5823
 30
0.0
 11
5.59897
 21
92.8204
 31
0.0
  0
LINE
  8
0
 62
     0
 10
5.59897
 20
92.8204
 30
0.0
 11
5.08081
 21
92.9019
 31
0.0
  0
LINE
  8
0
 62
     0
 10
5.08081
 20
92.9019
 30
0.0
 11
4.56406
 21
92.8204
 31
0.0
  0
LINE
  8
0
 62
     0
 10
257.59
 20
92.8204
 30
0.0
 11
257.123
 21
92.5823
 31
0.0
  0
LINE
  8
0
 62
     0
 10
257.123
 20
92.5823
 30
0.0
 11
256.752
 21
92.2115
 31
0.0
  0
LINE
  8
0
 62
     0
 10
256.752
 20
92.2115
 30
0.0
 11
256.514
 21
91.7444
 31
0.0
  0
LINE
  8
0
 62
     0
 10
256.514
 20
91.7444
 30
0.0
 11
256.432
 21
91.2276
 31
0.0
  0
LINE
  8
0
 62
     0
 10
256.432
 20
91.2276
 30
0.0
 11
256.514
 21
90.7094
 31
0.0
  0
LINE
  8
0
 62
     0
 10
256.514
 20
90.7094
 30
0.0
 11
256.752
 21
90.2423
 31
0.0
  0
LINE
  8
0
 62
     0
 10
256.752
 20
90.2423
 30
0.0
 11
257.123
 21
89.8715
 31
0.0
  0
LINE
  8
0
 62
     0
 10
257.123
 20
89.8715
 30
0.0
 11
257.59
 21
89.6331
 31
0.0
  0
LINE
  8
0
 62
     0
 10
257.59
 20
89.6331
 30
0.0
 11
258.108
 21
89.5519
 31
0.0
  0
LINE
  8
0
 62
     0
 10
258.108
 20
89.5519
 30
0.0
 11
258.626
 21
89.6331
 31
0.0
  0
LINE
  8
0
 62
     0
 10
258.626
 20
89.6331
 30
0.0
 11
259.092
 21
89.8715
 31
0.0
  0
LINE
  8
0
 62
     0
 10
259.092
 20
89.8715
 30
0.0
 11
259.462
 21
90.2423
 31
0.0
  0
LINE
  8
0
 62
     0
 10
259.462
 20
90.2423
 30
0.0
 11
259.701
 21
90.7094
 31
0.0
  0
LINE
  8
0
 62
     0
 10
259.701
 20
90.7094
 30
0.0
 11
259.782
 21
91.2276
 31
0.0
  0
LINE
  8
0
 62
     0
 10
259.782
 20
91.2276
 30
0.0
 11
259.701
 21
91.7444
 31
0.0
  0
LINE
  8
0
 62
     0
 10
259.701
 20
91.7444
 30
0.0
 11
259.462
 21
92.2115
 31
0.0
  0
LINE
  8
0
 62
     0
 10
259.462
 20
92.2115
 30
0.0
 11
259.092
 21
92.5823
 31
0.0
  0
LINE
  8
0
 62
     0
 10
259.092
 20
92.5823
 30
0.0
 11
258.626
 21
92.8204
 31
0.0
  0
LINE
  8
0
 62
     0
 10
258.626
 20
92.8204
 30
0.0
 11
258.108
 21
92.9019
 31
0.0
  0
LINE
  8
0
 62
     0
 10
258.108
 20
92.9019
 30
0.0
 11
257.59
 21
92.8204
 31
0.0
  0
LINE
  8
0
 62
     0
 10
173.248
 20
92.8204
 30
0.0
 11
172.781
 21
92.5823
 31
0.0
  0
LINE
  8
0
 62
     0
 10
172.781
 20
92.5823
 30
0.0
 11
172.411
 21
92.2115
 31
0.0
  0
LINE
  8
0
 62
     0
 10
172.411
 20
92.2115
 30
0.0
 11
172.172
 21
91.7444
 31
0.0
  0
LINE
  8
0
 62
     0
 10
172.172
 20
91.7444
 30
0.0
 11
172.091
 21
91.2276
 31
0.0
  0
LINE
  8
0
 62
     0
 10
172.091
 20
91.2276
 30
0.0
 11
172.172
 21
90.7094
 31
0.0
  0
LINE
  8
0
 62
     0
 10
172.172
 20
90.7094
 30
0.0
 11
172.411
 21
90.2423
 31
0.0
  0
LINE
  8
0
 62
     0
 10
172.411
 20
90.2423
 30
0.0
 11
172.781
 21
89.8715
 31
0.0
  0
LINE
  8
0
 62
     0
 10
172.781
 20
89.8715
 30
0.0
 11
173.248
 21
89.6331
 31
0.0
  0
LINE
  8
0
 62
     0
 10
173.248
 20
89.6331
 30
0.0
 11
173.765
 21
89.5519
 31
0.0
  0
LINE
  8
0
 62
     0
 10
173.765
 20
89.5519
 30
0.0
 11
174.283
 21
89.6331
 31
0.0
  0
LINE
  8
0
 62
     0
 10
174.283
 20
89.6331
 30
0.0
 11
174.75
 21
89.8715
 31
0.0
  0
LINE
  8
0
 62
     0
 10
174.75
 20
89.8715
 30
0.0
 11
175.121
 21
90.2423
 31
0.0
  0
LINE
  8
0
 62
     0
 10
175.121
 20
90.2423
 30
0.0
 11
175.358
 21
90.7094
 31
0.0
  0
LINE
  8
0
 62
     0
 10
175.358
 20
90.7094
 30
0.0
 11
175.441
 21
91.2276
 31
0.0
  0
LINE
  8
0
 62
     0
 10
175.441
 20
91.2276
 30
0.0
 11
175.358
 21
91.7444
 31
0.0
  0
LINE
  8
0
 62
     0
 10
175.358
 20
91.7444
 30
0.0
 11
175.121
 21
92.2115
 31
0.0
  0
LINE
  8
0
 62
     0
 10
175.121
 20
92.2115
 30
0.0
 11
174.75
 21
92.5823
 31
0.0
  0
LINE
  8
0
 62
     0
 10
174.75
 20
92.5823
 30
0.0
 11
174.283
 21
92.8204
 31
0.0
  0
LINE
  8
0
 62
     0
 10
174.283
 20
92.8204
 30
0.0
 11
173.765
 21
92.9019
 31
0.0
  0
LINE
  8
0
 62
     0
 10
173.765
 20
92.9019
 30
0.0
 11
173.248
 21
92.8204
 31
0.0
  0
LINE
  8
0
 62
     0
 10
88.9071
 20
92.8204
 30
0.0
 11
88.4396
 21
92.5823
 31
0.0
  0
LINE
  8
0
 62
     0
 10
88.4396
 20
92.5823
 30
0.0
 11
88.0692
 21
92.2115
 31
0.0
  0
LINE
  8
0
 62
     0
 10
88.0692
 20
92.2115
 30
0.0
 11
87.8307
 21
91.7444
 31
0.0
  0
LINE
  8
0
 62
     0
 10
87.8307
 20
91.7444
 30
0.0
 11
87.7478
 21
91.2276
 31
0.0
  0
LINE
  8
0
 62
     0
 10
87.7478
 20
91.2276
 30
0.0
 11
87.8307
 21
90.7094
 31
0.0
  0
LINE
  8
0
 62
     0
 10
87.8307
 20
90.7094
 30
0.0
 11
88.0692
 21
90.2423
 31
0.0
  0
LINE
  8
0
 62
     0
 10
88.0692
 20
90.2423
 30
0.0
 11
88.4396
 21
89.8715
 31
0.0
  0
LINE
  8
0
 62
     0
 10
88.4396
 20
89.8715
 30
0.0
 11
88.9071
 21
89.6331
 31
0.0
  0
LINE
  8
0
 62
     0
 10
88.9071
 20
89.6331
 30
0.0
 11
89.4235
 21
89.5519
 31
0.0
  0
LINE
  8
0
 62
     0
 10
89.4235
 20
89.5519
 30
0.0
 11
89.9418
 21
89.6331
 31
0.0
  0
LINE
  8
0
 62
     0
 10
89.9418
 20
89.6331
 30
0.0
 11
90.4088
 21
89.8715
 31
0.0
  0
LINE
  8
0
 62
     0
 10
90.4088
 20
89.8715
 30
0.0
 11
90.7782
 21
90.2423
 31
0.0
  0
LINE
  8
0
 62
     0
 10
90.7782
 20
90.2423
 30
0.0
 11
91.0167
 21
90.7094
 31
0.0
  0
LINE
  8
0
 62
     0
 10
91.0167
 20
90.7094
 30
0.0
 11
91.0978
 21
91.2276
 31
0.0
  0
LINE
  8
0
 62
     0
 10
91.0978
 20
91.2276
 30
0.0
 11
91.0167
 21
91.7444
 31
0.0
  0
LINE
  8
0
 62
     0
 10
91.0167
 20
91.7444
 30
0.0
 11
90.7782
 21
92.2115
 31
0.0
  0
LINE
  8
0
 62
     0
 10
90.7782
 20
92.2115
 30
0.0
 11
90.4088
 21
92.5823
 31
0.0
  0
LINE
  8
0
 62
     0
 10
90.4088
 20
92.5823
 30
0.0
 11
89.9418
 21
92.8204
 31
0.0
  0
LINE
  8
0
 62
     0
 10
89.9418
 20
92.8204
 30
0.0
 11
89.4235
 21
92.9019
 31
0.0
  0
LINE
  8
0
 62
     0
 10
89.4235
 20
92.9019
 30
0.0
 11
88.9071
 21
92.8204
 31
0.0
  0
ENDSEC
  0
EOF
