  0
SECTION
  2
HEADER
  9
$ACADVER
  1
AC1009
  9
$EXTMIN
 10
0.0
 20
0.0
 30
0.0
  9
$EXTMAX
 10
1000.0
 20
1000.0
 30
0.0
  9
$FILLMODE
 70
 0
  9
$SPLFRAME
 70
 1
  0
ENDSEC
  0
SECTION
  2
TABLES
  0
TABLE
  2
LAYER
 70
1
  0
LAYER
  2
0
 70
     0
 62
     7
  6
CONTINUOUS
  0
ENDTAB
  0
ENDSEC
  0
SECTION
  2
ENTITIES
  0
LINE
  8
0
 62
     0
 10
260.095
 20
96.2131
 30
0.0
 11
260.329
 21
96.2036
 31
0.0
  0
LINE
  8
0
 62
     0
 10
260.329
 20
96.2036
 30
0.0
 11
260.563
 21
96.1775
 31
0.0
  0
LINE
  8
0
 62
     0
 10
260.563
 20
96.1775
 30
0.0
 11
260.795
 21
96.1305
 31
0.0
  0
LINE
  8
0
 62
     0
 10
260.795
 20
96.1305
 30
0.0
 11
261.021
 21
96.067
 31
0.0
  0
LINE
  8
0
 62
     0
 10
261.021
 20
96.067
 30
0.0
 11
261.243
 21
95.9845
 31
0.0
  0
LINE
  8
0
 62
     0
 10
261.243
 20
95.9845
 30
0.0
 11
261.457
 21
95.8868
 31
0.0
  0
LINE
  8
0
 62
     0
 10
261.457
 20
95.8868
 30
0.0
 11
261.662
 21
95.771
 31
0.0
  0
LINE
  8
0
 62
     0
 10
261.662
 20
95.771
 30
0.0
 11
261.857
 21
95.6412
 31
0.0
  0
LINE
  8
0
 62
     0
 10
261.857
 20
95.6412
 30
0.0
 11
262.042
 21
95.4952
 31
0.0
  0
LINE
  8
0
 62
     0
 10
262.042
 20
95.4952
 30
0.0
 11
262.216
 21
95.3354
 31
0.0
  0
LINE
  8
0
 62
     0
 10
262.216
 20
95.3354
 30
0.0
 11
262.376
 21
95.1618
 31
0.0
  0
LINE
  8
0
 62
     0
 10
262.376
 20
95.1618
 30
0.0
 11
262.522
 21
94.9773
 31
0.0
  0
LINE
  8
0
 62
     0
 10
262.522
 20
94.9773
 30
0.0
 11
262.653
 21
94.7815
 31
0.0
  0
LINE
  8
0
 62
     0
 10
262.653
 20
94.7815
 30
0.0
 11
262.767
 21
94.5748
 31
0.0
  0
LINE
  8
0
 62
     0
 10
262.767
 20
94.5748
 30
0.0
 11
262.866
 21
94.361
 31
0.0
  0
LINE
  8
0
 62
     0
 10
262.866
 20
94.361
 30
0.0
 11
262.947
 21
94.1405
 31
0.0
  0
LINE
  8
0
 62
     0
 10
262.947
 20
94.1405
 30
0.0
 11
263.011
 21
93.9133
 31
0.0
  0
LINE
  8
0
 62
     0
 10
263.011
 20
93.9133
 30
0.0
 11
263.058
 21
93.6833
 31
0.0
  0
LINE
  8
0
 62
     0
 10
263.058
 20
93.6833
 30
0.0
 11
263.085
 21
93.4491
 31
0.0
  0
LINE
  8
0
 62
     0
 10
263.085
 20
93.4491
 30
0.0
 11
263.095
 21
93.2134
 31
0.0
  0
LINE
  8
0
 62
     0
 10
263.095
 20
93.2134
 30
0.0
 11
263.095
 21
3.21359
 31
0.0
  0
LINE
  8
0
 62
     0
 10
263.095
 20
3.21359
 30
0.0
 11
263.085
 21
2.97932
 31
0.0
  0
LINE
  8
0
 62
     0
 10
263.085
 20
2.97932
 30
0.0
 11
263.058
 21
2.74505
 31
0.0
  0
LINE
  8
0
 62
     0
 10
263.058
 20
2.74505
 30
0.0
 11
263.011
 21
2.51354
 31
0.0
  0
LINE
  8
0
 62
     0
 10
263.011
 20
2.51354
 30
0.0
 11
262.947
 21
2.28617
 31
0.0
  0
LINE
  8
0
 62
     0
 10
262.947
 20
2.28617
 30
0.0
 11
262.866
 21
2.06568
 31
0.0
  0
LINE
  8
0
 62
     0
 10
262.866
 20
2.06568
 30
0.0
 11
262.767
 21
1.85346
 31
0.0
  0
LINE
  8
0
 62
     0
 10
262.767
 20
1.85346
 30
0.0
 11
262.653
 21
1.64676
 31
0.0
  0
LINE
  8
0
 62
     0
 10
262.653
 20
1.64676
 30
0.0
 11
262.522
 21
1.45107
 31
0.0
  0
LINE
  8
0
 62
     0
 10
262.522
 20
1.45107
 30
0.0
 11
262.376
 21
1.26642
 31
0.0
  0
LINE
  8
0
 62
     0
 10
262.376
 20
1.26642
 30
0.0
 11
262.216
 21
1.09279
 31
0.0
  0
LINE
  8
0
 62
     0
 10
262.216
 20
1.09279
 30
0.0
 11
262.042
 21
0.932931
 31
0.0
  0
LINE
  8
0
 62
     0
 10
262.042
 20
0.932931
 30
0.0
 11
261.857
 21
0.78686
 31
0.0
  0
LINE
  8
0
 62
     0
 10
261.857
 20
0.78686
 30
0.0
 11
261.662
 21
0.657324
 31
0.0
  0
LINE
  8
0
 62
     0
 10
261.662
 20
0.657324
 30
0.0
 11
261.457
 21
0.540191
 31
0.0
  0
LINE
  8
0
 62
     0
 10
261.457
 20
0.540191
 30
0.0
 11
261.243
 21
0.442352
 31
0.0
  0
LINE
  8
0
 62
     0
 10
261.243
 20
0.442352
 30
0.0
 11
261.021
 21
0.361047
 31
0.0
  0
LINE
  8
0
 62
     0
 10
261.021
 20
0.361047
 30
0.0
 11
260.795
 21
0.296278
 31
0.0
  0
LINE
  8
0
 62
     0
 10
260.795
 20
0.296278
 30
0.0
 11
260.563
 21
0.250803
 31
0.0
  0
LINE
  8
0
 62
     0
 10
260.563
 20
0.250803
 30
0.0
 11
260.329
 21
0.223242
 31
0.0
  0
LINE
  8
0
 62
     0
 10
260.329
 20
0.223242
 30
0.0
 11
260.095
 21
0.213596
 31
0.0
  0
LINE
  8
0
 62
     0
 10
260.095
 20
0.213596
 30
0.0
 11
3.09507
 21
0.213596
 31
0.0
  0
LINE
  8
0
 62
     0
 10
3.09507
 20
0.213596
 30
0.0
 11
2.85943
 21
0.223242
 31
0.0
  0
LINE
  8
0
 62
     0
 10
2.85943
 20
0.223242
 30
0.0
 11
2.62516
 21
0.250803
 31
0.0
  0
LINE
  8
0
 62
     0
 10
2.62516
 20
0.250803
 30
0.0
 11
2.39503
 21
0.296278
 31
0.0
  0
LINE
  8
0
 62
     0
 10
2.39503
 20
0.296278
 30
0.0
 11
2.16765
 21
0.361047
 31
0.0
  0
LINE
  8
0
 62
     0
 10
2.16765
 20
0.361047
 30
0.0
 11
1.94717
 21
0.442352
 31
0.0
  0
LINE
  8
0
 62
     0
 10
1.94717
 20
0.442352
 30
0.0
 11
1.73357
 21
0.540191
 31
0.0
  0
LINE
  8
0
 62
     0
 10
1.73357
 20
0.540191
 30
0.0
 11
1.52687
 21
0.657324
 31
0.0
  0
LINE
  8
0
 62
     0
 10
1.52687
 20
0.657324
 30
0.0
 11
1.33119
 21
0.78686
 31
0.0
  0
LINE
  8
0
 62
     0
 10
1.33119
 20
0.78686
 30
0.0
 11
1.14653
 21
0.932931
 31
0.0
  0
LINE
  8
0
 62
     0
 10
1.14653
 20
0.932931
 30
0.0
 11
0.972894
 21
1.09279
 31
0.0
  0
LINE
  8
0
 62
     0
 10
0.972894
 20
1.09279
 30
0.0
 11
0.813043
 21
1.26642
 31
0.0
  0
LINE
  8
0
 62
     0
 10
0.813043
 20
1.26642
 30
0.0
 11
0.666972
 21
1.45107
 31
0.0
  0
LINE
  8
0
 62
     0
 10
0.666972
 20
1.45107
 30
0.0
 11
0.537436
 21
1.64676
 31
0.0
  0
LINE
  8
0
 62
     0
 10
0.537436
 20
1.64676
 30
0.0
 11
0.421679
 21
1.85346
 31
0.0
  0
LINE
  8
0
 62
     0
 10
0.421679
 20
1.85346
 30
0.0
 11
0.323839
 21
2.06568
 31
0.0
  0
LINE
  8
0
 62
     0
 10
0.323839
 20
2.06568
 30
0.0
 11
0.241157
 21
2.28617
 31
0.0
  0
LINE
  8
0
 62
     0
 10
0.241157
 20
2.28617
 30
0.0
 11
0.177767
 21
2.51354
 31
0.0
  0
LINE
  8
0
 62
     0
 10
0.177767
 20
2.51354
 30
0.0
 11
0.130914
 21
2.74505
 31
0.0
  0
LINE
  8
0
 62
     0
 10
0.130914
 20
2.74505
 30
0.0
 11
0.104731
 21
2.97932
 31
0.0
  0
LINE
  8
0
 62
     0
 10
0.104731
 20
2.97932
 30
0.0
 11
0.0950846
 21
3.21359
 31
0.0
  0
LINE
  8
0
 62
     0
 10
0.0950846
 20
3.21359
 30
0.0
 11
0.0950846
 21
93.2134
 31
0.0
  0
LINE
  8
0
 62
     0
 10
0.0950846
 20
93.2134
 30
0.0
 11
0.104731
 21
93.4491
 31
0.0
  0
LINE
  8
0
 62
     0
 10
0.104731
 20
93.4491
 30
0.0
 11
0.130914
 21
93.6833
 31
0.0
  0
LINE
  8
0
 62
     0
 10
0.130914
 20
93.6833
 30
0.0
 11
0.177767
 21
93.9133
 31
0.0
  0
LINE
  8
0
 62
     0
 10
0.177767
 20
93.9133
 30
0.0
 11
0.241157
 21
94.1405
 31
0.0
  0
LINE
  8
0
 62
     0
 10
0.241157
 20
94.1405
 30
0.0
 11
0.323839
 21
94.361
 31
0.0
  0
LINE
  8
0
 62
     0
 10
0.323839
 20
94.361
 30
0.0
 11
0.421679
 21
94.5748
 31
0.0
  0
LINE
  8
0
 62
     0
 10
0.421679
 20
94.5748
 30
0.0
 11
0.537436
 21
94.7815
 31
0.0
  0
LINE
  8
0
 62
     0
 10
0.537436
 20
94.7815
 30
0.0
 11
0.666972
 21
94.9773
 31
0.0
  0
LINE
  8
0
 62
     0
 10
0.666972
 20
94.9773
 30
0.0
 11
0.813043
 21
95.1618
 31
0.0
  0
LINE
  8
0
 62
     0
 10
0.813043
 20
95.1618
 30
0.0
 11
0.972894
 21
95.3354
 31
0.0
  0
LINE
  8
0
 62
     0
 10
0.972894
 20
95.3354
 30
0.0
 11
1.14653
 21
95.4952
 31
0.0
  0
LINE
  8
0
 62
     0
 10
1.14653
 20
95.4952
 30
0.0
 11
1.33119
 21
95.6412
 31
0.0
  0
LINE
  8
0
 62
     0
 10
1.33119
 20
95.6412
 30
0.0
 11
1.52687
 21
95.771
 31
0.0
  0
LINE
  8
0
 62
     0
 10
1.52687
 20
95.771
 30
0.0
 11
1.73357
 21
95.8868
 31
0.0
  0
LINE
  8
0
 62
     0
 10
1.73357
 20
95.8868
 30
0.0
 11
1.94717
 21
95.9845
 31
0.0
  0
LINE
  8
0
 62
     0
 10
1.94717
 20
95.9845
 30
0.0
 11
2.16765
 21
96.067
 31
0.0
  0
LINE
  8
0
 62
     0
 10
2.16765
 20
96.067
 30
0.0
 11
2.39503
 21
96.1305
 31
0.0
  0
LINE
  8
0
 62
     0
 10
2.39503
 20
96.1305
 30
0.0
 11
2.62516
 21
96.1775
 31
0.0
  0
LINE
  8
0
 62
     0
 10
2.62516
 20
96.1775
 30
0.0
 11
2.85943
 21
96.2036
 31
0.0
  0
LINE
  8
0
 62
     0
 10
2.85943
 20
96.2036
 30
0.0
 11
3.09507
 21
96.2131
 31
0.0
  0
LINE
  8
0
 62
     0
 10
3.09507
 20
96.2131
 30
0.0
 11
260.095
 21
96.2131
 31
0.0
  0
LINE
  8
0
 62
     0
 10
4.56406
 20
6.7951
 30
0.0
 11
4.09691
 21
6.55669
 31
0.0
  0
LINE
  8
0
 62
     0
 10
4.09691
 20
6.55669
 30
0.0
 11
3.72622
 21
6.18603
 31
0.0
  0
LINE
  8
0
 62
     0
 10
3.72622
 20
6.18603
 30
0.0
 11
3.48782
 21
5.71885
 31
0.0
  0
LINE
  8
0
 62
     0
 10
3.48782
 20
5.71885
 30
0.0
 11
3.40651
 21
5.2021
 31
0.0
  0
LINE
  8
0
 62
     0
 10
3.40651
 20
5.2021
 30
0.0
 11
3.48782
 21
4.68394
 31
0.0
  0
LINE
  8
0
 62
     0
 10
3.48782
 20
4.68394
 30
0.0
 11
3.72622
 21
4.21679
 31
0.0
  0
LINE
  8
0
 62
     0
 10
3.72622
 20
4.21679
 30
0.0
 11
4.09691
 21
3.84609
 31
0.0
  0
LINE
  8
0
 62
     0
 10
4.09691
 20
3.84609
 30
0.0
 11
4.56406
 21
3.60772
 31
0.0
  0
LINE
  8
0
 62
     0
 10
4.56406
 20
3.60772
 30
0.0
 11
5.08081
 21
3.5264
 31
0.0
  0
LINE
  8
0
 62
     0
 10
5.08081
 20
3.5264
 30
0.0
 11
5.59897
 21
3.60772
 31
0.0
  0
LINE
  8
0
 62
     0
 10
5.59897
 20
3.60772
 30
0.0
 11
6.06612
 21
3.84609
 31
0.0
  0
LINE
  8
0
 62
     0
 10
6.06612
 20
3.84609
 30
0.0
 11
6.43682
 21
4.21679
 31
0.0
  0
LINE
  8
0
 62
     0
 10
6.43682
 20
4.21679
 30
0.0
 11
6.67523
 21
4.68394
 31
0.0
  0
LINE
  8
0
 62
     0
 10
6.67523
 20
4.68394
 30
0.0
 11
6.75651
 21
5.2021
 31
0.0
  0
LINE
  8
0
 62
     0
 10
6.75651
 20
5.2021
 30
0.0
 11
6.67523
 21
5.71885
 31
0.0
  0
LINE
  8
0
 62
     0
 10
6.67523
 20
5.71885
 30
0.0
 11
6.43682
 21
6.18603
 31
0.0
  0
LINE
  8
0
 62
     0
 10
6.43682
 20
6.18603
 30
0.0
 11
6.06612
 21
6.55669
 31
0.0
  0
LINE
  8
0
 62
     0
 10
6.06612
 20
6.55669
 30
0.0
 11
5.59897
 21
6.7951
 31
0.0
  0
LINE
  8
0
 62
     0
 10
5.59897
 20
6.7951
 30
0.0
 11
5.08081
 21
6.87642
 31
0.0
  0
LINE
  8
0
 62
     0
 10
5.08081
 20
6.87642
 30
0.0
 11
4.56406
 21
6.7951
 31
0.0
  0
LINE
  8
0
 62
     0
 10
88.9071
 20
6.7951
 30
0.0
 11
88.4396
 21
6.55669
 31
0.0
  0
LINE
  8
0
 62
     0
 10
88.4396
 20
6.55669
 30
0.0
 11
88.0692
 21
6.18603
 31
0.0
  0
LINE
  8
0
 62
     0
 10
88.0692
 20
6.18603
 30
0.0
 11
87.8307
 21
5.71885
 31
0.0
  0
LINE
  8
0
 62
     0
 10
87.8307
 20
5.71885
 30
0.0
 11
87.7478
 21
5.2021
 31
0.0
  0
LINE
  8
0
 62
     0
 10
87.7478
 20
5.2021
 30
0.0
 11
87.8307
 21
4.68394
 31
0.0
  0
LINE
  8
0
 62
     0
 10
87.8307
 20
4.68394
 30
0.0
 11
88.0692
 21
4.21679
 31
0.0
  0
LINE
  8
0
 62
     0
 10
88.0692
 20
4.21679
 30
0.0
 11
88.4396
 21
3.84609
 31
0.0
  0
LINE
  8
0
 62
     0
 10
88.4396
 20
3.84609
 30
0.0
 11
88.9071
 21
3.60772
 31
0.0
  0
LINE
  8
0
 62
     0
 10
88.9071
 20
3.60772
 30
0.0
 11
89.4235
 21
3.5264
 31
0.0
  0
LINE
  8
0
 62
     0
 10
89.4235
 20
3.5264
 30
0.0
 11
89.9418
 21
3.60772
 31
0.0
  0
LINE
  8
0
 62
     0
 10
89.9418
 20
3.60772
 30
0.0
 11
90.4088
 21
3.84609
 31
0.0
  0
LINE
  8
0
 62
     0
 10
90.4088
 20
3.84609
 30
0.0
 11
90.7782
 21
4.21679
 31
0.0
  0
LINE
  8
0
 62
     0
 10
90.7782
 20
4.21679
 30
0.0
 11
91.0167
 21
4.68394
 31
0.0
  0
LINE
  8
0
 62
     0
 10
91.0167
 20
4.68394
 30
0.0
 11
91.0978
 21
5.2021
 31
0.0
  0
LINE
  8
0
 62
     0
 10
91.0978
 20
5.2021
 30
0.0
 11
91.0167
 21
5.71885
 31
0.0
  0
LINE
  8
0
 62
     0
 10
91.0167
 20
5.71885
 30
0.0
 11
90.7782
 21
6.18603
 31
0.0
  0
LINE
  8
0
 62
     0
 10
90.7782
 20
6.18603
 30
0.0
 11
90.4088
 21
6.55669
 31
0.0
  0
LINE
  8
0
 62
     0
 10
90.4088
 20
6.55669
 30
0.0
 11
89.9418
 21
6.7951
 31
0.0
  0
LINE
  8
0
 62
     0
 10
89.9418
 20
6.7951
 30
0.0
 11
89.4235
 21
6.87642
 31
0.0
  0
LINE
  8
0
 62
     0
 10
89.4235
 20
6.87642
 30
0.0
 11
88.9071
 21
6.7951
 31
0.0
  0
LINE
  8
0
 62
     0
 10
173.248
 20
6.7951
 30
0.0
 11
172.781
 21
6.55669
 31
0.0
  0
LINE
  8
0
 62
     0
 10
172.781
 20
6.55669
 30
0.0
 11
172.411
 21
6.18603
 31
0.0
  0
LINE
  8
0
 62
     0
 10
172.411
 20
6.18603
 30
0.0
 11
172.172
 21
5.71885
 31
0.0
  0
LINE
  8
0
 62
     0
 10
172.172
 20
5.71885
 30
0.0
 11
172.091
 21
5.2021
 31
0.0
  0
LINE
  8
0
 62
     0
 10
172.091
 20
5.2021
 30
0.0
 11
172.172
 21
4.68394
 31
0.0
  0
LINE
  8
0
 62
     0
 10
172.172
 20
4.68394
 30
0.0
 11
172.411
 21
4.21679
 31
0.0
  0
LINE
  8
0
 62
     0
 10
172.411
 20
4.21679
 30
0.0
 11
172.781
 21
3.84609
 31
0.0
  0
LINE
  8
0
 62
     0
 10
172.781
 20
3.84609
 30
0.0
 11
173.248
 21
3.60772
 31
0.0
  0
LINE
  8
0
 62
     0
 10
173.248
 20
3.60772
 30
0.0
 11
173.765
 21
3.5264
 31
0.0
  0
LINE
  8
0
 62
     0
 10
173.765
 20
3.5264
 30
0.0
 11
174.283
 21
3.60772
 31
0.0
  0
LINE
  8
0
 62
     0
 10
174.283
 20
3.60772
 30
0.0
 11
174.75
 21
3.84609
 31
0.0
  0
LINE
  8
0
 62
     0
 10
174.75
 20
3.84609
 30
0.0
 11
175.121
 21
4.21679
 31
0.0
  0
LINE
  8
0
 62
     0
 10
175.121
 20
4.21679
 30
0.0
 11
175.358
 21
4.68394
 31
0.0
  0
LINE
  8
0
 62
     0
 10
175.358
 20
4.68394
 30
0.0
 11
175.441
 21
5.2021
 31
0.0
  0
LINE
  8
0
 62
     0
 10
175.441
 20
5.2021
 30
0.0
 11
175.358
 21
5.71885
 31
0.0
  0
LINE
  8
0
 62
     0
 10
175.358
 20
5.71885
 30
0.0
 11
175.121
 21
6.18603
 31
0.0
  0
LINE
  8
0
 62
     0
 10
175.121
 20
6.18603
 30
0.0
 11
174.75
 21
6.55669
 31
0.0
  0
LINE
  8
0
 62
     0
 10
174.75
 20
6.55669
 30
0.0
 11
174.283
 21
6.7951
 31
0.0
  0
LINE
  8
0
 62
     0
 10
174.283
 20
6.7951
 30
0.0
 11
173.765
 21
6.87642
 31
0.0
  0
LINE
  8
0
 62
     0
 10
173.765
 20
6.87642
 30
0.0
 11
173.248
 21
6.7951
 31
0.0
  0
LINE
  8
0
 62
     0
 10
257.59
 20
6.7951
 30
0.0
 11
257.123
 21
6.55669
 31
0.0
  0
LINE
  8
0
 62
     0
 10
257.123
 20
6.55669
 30
0.0
 11
256.752
 21
6.18603
 31
0.0
  0
LINE
  8
0
 62
     0
 10
256.752
 20
6.18603
 30
0.0
 11
256.514
 21
5.71885
 31
0.0
  0
LINE
  8
0
 62
     0
 10
256.514
 20
5.71885
 30
0.0
 11
256.432
 21
5.2021
 31
0.0
  0
LINE
  8
0
 62
     0
 10
256.432
 20
5.2021
 30
0.0
 11
256.514
 21
4.68394
 31
0.0
  0
LINE
  8
0
 62
     0
 10
256.514
 20
4.68394
 30
0.0
 11
256.752
 21
4.21679
 31
0.0
  0
LINE
  8
0
 62
     0
 10
256.752
 20
4.21679
 30
0.0
 11
257.123
 21
3.84609
 31
0.0
  0
LINE
  8
0
 62
     0
 10
257.123
 20
3.84609
 30
0.0
 11
257.59
 21
3.60772
 31
0.0
  0
LINE
  8
0
 62
     0
 10
257.59
 20
3.60772
 30
0.0
 11
258.108
 21
3.5264
 31
0.0
  0
LINE
  8
0
 62
     0
 10
258.108
 20
3.5264
 30
0.0
 11
258.626
 21
3.60772
 31
0.0
  0
LINE
  8
0
 62
     0
 10
258.626
 20
3.60772
 30
0.0
 11
259.092
 21
3.84609
 31
0.0
  0
LINE
  8
0
 62
     0
 10
259.092
 20
3.84609
 30
0.0
 11
259.462
 21
4.21679
 31
0.0
  0
LINE
  8
0
 62
     0
 10
259.462
 20
4.21679
 30
0.0
 11
259.701
 21
4.68394
 31
0.0
  0
LINE
  8
0
 62
     0
 10
259.701
 20
4.68394
 30
0.0
 11
259.782
 21
5.2021
 31
0.0
  0
LINE
  8
0
 62
     0
 10
259.782
 20
5.2021
 30
0.0
 11
259.701
 21
5.71885
 31
0.0
  0
LINE
  8
0
 62
     0
 10
259.701
 20
5.71885
 30
0.0
 11
259.462
 21
6.18603
 31
0.0
  0
LINE
  8
0
 62
     0
 10
259.462
 20
6.18603
 30
0.0
 11
259.092
 21
6.55669
 31
0.0
  0
LINE
  8
0
 62
     0
 10
259.092
 20
6.55669
 30
0.0
 11
258.626
 21
6.7951
 31
0.0
  0
LINE
  8
0
 62
     0
 10
258.626
 20
6.7951
 30
0.0
 11
258.108
 21
6.87642
 31
0.0
  0
LINE
  8
0
 62
     0
 10
258.108
 20
6.87642
 30
0.0
 11
257.59
 21
6.7951
 31
0.0
  0
LINE
  8
0
 62
     0
 10
4.56406
 20
92.8204
 30
0.0
 11
4.09691
 21
92.5823
 31
0.0
  0
LINE
  8
0
 62
     0
 10
4.09691
 20
92.5823
 30
0.0
 11
3.72622
 21
92.2115
 31
0.0
  0
LINE
  8
0
 62
     0
 10
3.72622
 20
92.2115
 30
0.0
 11
3.48782
 21
91.7444
 31
0.0
  0
LINE
  8
0
 62
     0
 10
3.48782
 20
91.7444
 30
0.0
 11
3.40651
 21
91.2276
 31
0.0
  0
LINE
  8
0
 62
     0
 10
3.40651
 20
91.2276
 30
0.0
 11
3.48782
 21
90.7094
 31
0.0
  0
LINE
  8
0
 62
     0
 10
3.48782
 20
90.7094
 30
0.0
 11
3.72622
 21
90.2423
 31
0.0
  0
LINE
  8
0
 62
     0
 10
3.72622
 20
90.2423
 30
0.0
 11
4.09691
 21
89.8715
 31
0.0
  0
LINE
  8
0
 62
     0
 10
4.09691
 20
89.8715
 30
0.0
 11
4.56406
 21
89.6331
 31
0.0
  0
LINE
  8
0
 62
     0
 10
4.56406
 20
89.6331
 30
0.0
 11
5.08081
 21
89.5519
 31
0.0
  0
LINE
  8
0
 62
     0
 10
5.08081
 20
89.5519
 30
0.0
 11
5.59897
 21
89.6331
 31
0.0
  0
LINE
  8
0
 62
     0
 10
5.59897
 20
89.6331
 30
0.0
 11
6.06612
 21
89.8715
 31
0.0
  0
LINE
  8
0
 62
     0
 10
6.06612
 20
89.8715
 30
0.0
 11
6.43682
 21
90.2423
 31
0.0
  0
LINE
  8
0
 62
     0
 10
6.43682
 20
90.2423
 30
0.0
 11
6.67523
 21
90.7094
 31
0.0
  0
LINE
  8
0
 62
     0
 10
6.67523
 20
90.7094
 30
0.0
 11
6.75651
 21
91.2276
 31
0.0
  0
LINE
  8
0
 62
     0
 10
6.75651
 20
91.2276
 30
0.0
 11
6.67523
 21
91.7444
 31
0.0
  0
LINE
  8
0
 62
     0
 10
6.67523
 20
91.7444
 30
0.0
 11
6.43682
 21
92.2115
 31
0.0
  0
LINE
  8
0
 62
     0
 10
6.43682
 20
92.2115
 30
0.0
 11
6.06612
 21
92.5823
 31
0.0
  0
LINE
  8
0
 62
     0
 10
6.06612
 20
92.5823
 30
0.0
 11
5.59897
 21
92.8204
 31
0.0
  0
LINE
  8
0
 62
     0
 10
5.59897
 20
92.8204
 30
0.0
 11
5.08081
 21
92.9019
 31
0.0
  0
LINE
  8
0
 62
     0
 10
5.08081
 20
92.9019
 30
0.0
 11
4.56406
 21
92.8204
 31
0.0
  0
LINE
  8
0
 62
     0
 10
257.59
 20
92.8204
 30
0.0
 11
257.123
 21
92.5823
 31
0.0
  0
LINE
  8
0
 62
     0
 10
257.123
 20
92.5823
 30
0.0
 11
256.752
 21
92.2115
 31
0.0
  0
LINE
  8
0
 62
     0
 10
256.752
 20
92.2115
 30
0.0
 11
256.514
 21
91.7444
 31
0.0
  0
LINE
  8
0
 62
     0
 10
256.514
 20
91.7444
 30
0.0
 11
256.432
 21
91.2276
 31
0.0
  0
LINE
  8
0
 62
     0
 10
256.432
 20
91.2276
 30
0.0
 11
256.514
 21
90.7094
 31
0.0
  0
LINE
  8
0
 62
     0
 10
256.514
 20
90.7094
 30
0.0
 11
256.752
 21
90.2423
 31
0.0
  0
LINE
  8
0
 62
     0
 10
256.752
 20
90.2423
 30
0.0
 11
257.123
 21
89.8715
 31
0.0
  0
LINE
  8
0
 62
     0
 10
257.123
 20
89.8715
 30
0.0
 11
257.59
 21
89.6331
 31
0.0
  0
LINE
  8
0
 62
     0
 10
257.59
 20
89.6331
 30
0.0
 11
258.108
 21
89.5519
 31
0.0
  0
LINE
  8
0
 62
     0
 10
258.108
 20
89.5519
 30
0.0
 11
258.626
 21
89.6331
 31
0.0
  0
LINE
  8
0
 62
     0
 10
258.626
 20
89.6331
 30
0.0
 11
259.092
 21
89.8715
 31
0.0
  0
LINE
  8
0
 62
     0
 10
259.092
 20
89.8715
 30
0.0
 11
259.462
 21
90.2423
 31
0.0
  0
LINE
  8
0
 62
     0
 10
259.462
 20
90.2423
 30
0.0
 11
259.701
 21
90.7094
 31
0.0
  0
LINE
  8
0
 62
     0
 10
259.701
 20
90.7094
 30
0.0
 11
259.782
 21
91.2276
 31
0.0
  0
LINE
  8
0
 62
     0
 10
259.782
 20
91.2276
 30
0.0
 11
259.701
 21
91.7444
 31
0.0
  0
LINE
  8
0
 62
     0
 10
259.701
 20
91.7444
 30
0.0
 11
259.462
 21
92.2115
 31
0.0
  0
LINE
  8
0
 62
     0
 10
259.462
 20
92.2115
 30
0.0
 11
259.092
 21
92.5823
 31
0.0
  0
LINE
  8
0
 62
     0
 10
259.092
 20
92.5823
 30
0.0
 11
258.626
 21
92.8204
 31
0.0
  0
LINE
  8
0
 62
     0
 10
258.626
 20
92.8204
 30
0.0
 11
258.108
 21
92.9019
 31
0.0
  0
LINE
  8
0
 62
     0
 10
258.108
 20
92.9019
 30
0.0
 11
257.59
 21
92.8204
 31
0.0
  0
LINE
  8
0
 62
     0
 10
173.248
 20
92.8204
 30
0.0
 11
172.781
 21
92.5823
 31
0.0
  0
LINE
  8
0
 62
     0
 10
172.781
 20
92.5823
 30
0.0
 11
172.411
 21
92.2115
 31
0.0
  0
LINE
  8
0
 62
     0
 10
172.411
 20
92.2115
 30
0.0
 11
172.172
 21
91.7444
 31
0.0
  0
LINE
  8
0
 62
     0
 10
172.172
 20
91.7444
 30
0.0
 11
172.091
 21
91.2276
 31
0.0
  0
LINE
  8
0
 62
     0
 10
172.091
 20
91.2276
 30
0.0
 11
172.172
 21
90.7094
 31
0.0
  0
LINE
  8
0
 62
     0
 10
172.172
 20
90.7094
 30
0.0
 11
172.411
 21
90.2423
 31
0.0
  0
LINE
  8
0
 62
     0
 10
172.411
 20
90.2423
 30
0.0
 11
172.781
 21
89.8715
 31
0.0
  0
LINE
  8
0
 62
     0
 10
172.781
 20
89.8715
 30
0.0
 11
173.248
 21
89.6331
 31
0.0
  0
LINE
  8
0
 62
     0
 10
173.248
 20
89.6331
 30
0.0
 11
173.765
 21
89.5519
 31
0.0
  0
LINE
  8
0
 62
     0
 10
173.765
 20
89.5519
 30
0.0
 11
174.283
 21
89.6331
 31
0.0
  0
LINE
  8
0
 62
     0
 10
174.283
 20
89.6331
 30
0.0
 11
174.75
 21
89.8715
 31
0.0
  0
LINE
  8
0
 62
     0
 10
174.75
 20
89.8715
 30
0.0
 11
175.121
 21
90.2423
 31
0.0
  0
LINE
  8
0
 62
     0
 10
175.121
 20
90.2423
 30
0.0
 11
175.358
 21
90.7094
 31
0.0
  0
LINE
  8
0
 62
     0
 10
175.358
 20
90.7094
 30
0.0
 11
175.441
 21
91.2276
 31
0.0
  0
LINE
  8
0
 62
     0
 10
175.441
 20
91.2276
 30
0.0
 11
175.358
 21
91.7444
 31
0.0
  0
LINE
  8
0
 62
     0
 10
175.358
 20
91.7444
 30
0.0
 11
175.121
 21
92.2115
 31
0.0
  0
LINE
  8
0
 62
     0
 10
175.121
 20
92.2115
 30
0.0
 11
174.75
 21
92.5823
 31
0.0
  0
LINE
  8
0
 62
     0
 10
174.75
 20
92.5823
 30
0.0
 11
174.283
 21
92.8204
 31
0.0
  0
LINE
  8
0
 62
     0
 10
174.283
 20
92.8204
 30
0.0
 11
173.765
 21
92.9019
 31
0.0
  0
LINE
  8
0
 62
     0
 10
173.765
 20
92.9019
 30
0.0
 11
173.248
 21
92.8204
 31
0.0
  0
LINE
  8
0
 62
     0
 10
88.9071
 20
92.8204
 30
0.0
 11
88.4396
 21
92.5823
 31
0.0
  0
LINE
  8
0
 62
     0
 10
88.4396
 20
92.5823
 30
0.0
 11
88.0692
 21
92.2115
 31
0.0
  0
LINE
  8
0
 62
     0
 10
88.0692
 20
92.2115
 30
0.0
 11
87.8307
 21
91.7444
 31
0.0
  0
LINE
  8
0
 62
     0
 10
87.8307
 20
91.7444
 30
0.0
 11
87.7478
 21
91.2276
 31
0.0
  0
LINE
  8
0
 62
     0
 10
87.7478
 20
91.2276
 30
0.0
 11
87.8307
 21
90.7094
 31
0.0
  0
LINE
  8
0
 62
     0
 10
87.8307
 20
90.7094
 30
0.0
 11
88.0692
 21
90.2423
 31
0.0
  0
LINE
  8
0
 62
     0
 10
88.0692
 20
90.2423
 30
0.0
 11
88.4396
 21
89.8715
 31
0.0
  0
LINE
  8
0
 62
     0
 10
88.4396
 20
89.8715
 30
0.0
 11
88.9071
 21
89.6331
 31
0.0
  0
LINE
  8
0
 62
     0
 10
88.9071
 20
89.6331
 30
0.0
 11
89.4235
 21
89.5519
 31
0.0
  0
LINE
  8
0
 62
     0
 10
89.4235
 20
89.5519
 30
0.0
 11
89.9418
 21
89.6331
 31
0.0
  0
LINE
  8
0
 62
     0
 10
89.9418
 20
89.6331
 30
0.0
 11
90.4088
 21
89.8715
 31
0.0
  0
LINE
  8
0
 62
     0
 10
90.4088
 20
89.8715
 30
0.0
 11
90.7782
 21
90.2423
 31
0.0
  0
LINE
  8
0
 62
     0
 10
90.7782
 20
90.2423
 30
0.0
 11
91.0167
 21
90.7094
 31
0.0
  0
LINE
  8
0
 62
     0
 10
91.0167
 20
90.7094
 30
0.0
 11
91.0978
 21
91.2276
 31
0.0
  0
LINE
  8
0
 62
     0
 10
91.0978
 20
91.2276
 30
0.0
 11
91.0167
 21
91.7444
 31
0.0
  0
LINE
  8
0
 62
     0
 10
91.0167
 20
91.7444
 30
0.0
 11
90.7782
 21
92.2115
 31
0.0
  0
LINE
  8
0
 62
     0
 10
90.7782
 20
92.2115
 30
0.0
 11
90.4088
 21
92.5823
 31
0.0
  0
LINE
  8
0
 62
     0
 10
90.4088
 20
92.5823
 30
0.0
 11
89.9418
 21
92.8204
 31
0.0
  0
LINE
  8
0
 62
     0
 10
89.9418
 20
92.8204
 30
0.0
 11
89.4235
 21
92.9019
 31
0.0
  0
LINE
  8
0
 62
     0
 10
89.4235
 20
92.9019
 30
0.0
 11
88.9071
 21
92.8204
 31
0.0
  0
ENDSEC
  0
EOF
